<svg id="Слой_1" data-name="Слой 1" xmlns="http://www.w3.org/2000/svg" viewBox="0 0 230.44 184.74"><defs><style>.cls-1,.cls-3{fill:none;}.cls-1,.cls-3,.cls-4{stroke:#000;stroke-miterlimit:10;stroke-width:2px;}.cls-2{font-size:21.31px;font-family:Roboto-Regular, Roboto;}.cls-3{stroke-dasharray:12 12 12 12;}</style></defs><title>компас</title><circle class="cls-1" cx="109.19" cy="78.5" r="47"/><text class="cls-2" transform="translate(172.69 86.23) scale(1.08 1)">В</text><text class="cls-2" transform="translate(100.69 153.23) scale(1.08 1)">Ю</text><text class="cls-2" transform="translate(33.69 86.23) scale(1.08 1)">З</text><text class="cls-2" transform="translate(101.69 18.23) scale(1.08 1)">C</text><circle cx="215.49" cy="81.75" r="5"/><ellipse cx="216.89" cy="66.8" rx="2" ry="1" transform="translate(132.5 279.59) rotate(-85.37)"/><ellipse cx="206.42" cy="70.16" rx="1" ry="2" transform="translate(3.16 151.8) rotate(-40.2)"/><ellipse cx="225.7" cy="71.32" rx="2" ry="1" transform="translate(4.02 157.12) rotate(-38.27)"/><ellipse cx="201.89" cy="78.96" rx="1" ry="2" transform="translate(113.19 278.9) rotate(-87.3)"/><ellipse cx="228.75" cy="80.85" rx="1" ry="2" transform="translate(129.4 304.33) rotate(-85.37)"/><ellipse cx="205.9" cy="88.18" rx="2" ry="1" transform="translate(-8.59 155.72) rotate(-40.2)"/><ellipse cx="224.22" cy="89.65" rx="1" ry="2" transform="translate(2.49 188.01) rotate(-45.31)"/><ellipse cx="214.7" cy="92.7" rx="2" ry="1" transform="translate(86.69 290.62) rotate(-80.26)"/><path d="M6.58,72.18l6.78,7.73,1.14-.74L7.28,70.93Z" transform="translate(-0.31 2)"/><path d="M8.07,72.16,1.46,80,.31,79.32l7-8.39Z" transform="translate(-0.31 2)"/><path class="cls-3" d="M7,83.7c4.48,49.59,41.45,89.47,87.76,96.82,52.13,8.29,105-26.38,118.89-81.19" transform="translate(-0.31 2)"/><path class="cls-4" d="M98.43,89.65q5.76-15.91,11.5-31.82L121.45,89,110.21,78.63Z" transform="translate(-0.31 2)"/></svg>