<?xml version="1.0" encoding="utf-8"?>
<!-- Generator: Adobe Illustrator 23.0.1, SVG Export Plug-In . SVG Version: 6.00 Build 0)  -->
<svg version="1.2" baseProfile="tiny" id="Слой_1"
	 xmlns="http://www.w3.org/2000/svg" xmlns:xlink="http://www.w3.org/1999/xlink" x="0px" y="0px" viewBox="0 0 16 16"
	 xml:space="preserve">
<g>
	<path d="M4.41,8.93c-0.03,0-0.07,0-0.12,0s-0.11,0-0.16,0v1.16c0,0.15,0,0.27-0.01,0.38c0,0.11-0.01,0.19-0.02,0.26l0.74-0.04v0.36
		H2.87v-0.26c0.15,0,0.26-0.03,0.34-0.08s0.13-0.12,0.16-0.2s0.05-0.19,0.05-0.31c0-0.12,0-0.25,0-0.39V6.34
		c0-0.11,0-0.21,0.01-0.31c0-0.1,0.01-0.19,0.02-0.27L2.87,5.79V5.44c0.28-0.01,0.57-0.01,0.87-0.01s0.6,0,0.92,0
		c0.78,0,1.37,0.13,1.77,0.39c0.43,0.28,0.65,0.7,0.65,1.25c0,0.11-0.01,0.24-0.04,0.37S6.96,7.71,6.89,7.85S6.71,8.14,6.58,8.27
		s-0.3,0.25-0.5,0.34S5.65,8.79,5.37,8.85S4.77,8.93,4.41,8.93z M4.12,8.6c0.1,0.01,0.19,0.02,0.26,0.02s0.16,0,0.26,0
		c0.23,0,0.44-0.03,0.64-0.1c0.2-0.07,0.38-0.17,0.53-0.29C5.96,8.1,6.08,7.94,6.17,7.76C6.26,7.58,6.3,7.37,6.3,7.13
		c0-0.25-0.04-0.47-0.12-0.64S5.98,6.17,5.84,6.06C5.69,5.95,5.52,5.87,5.31,5.82S4.89,5.74,4.64,5.74c-0.14,0-0.25,0.02-0.32,0.07
		S4.2,5.92,4.17,6C4.14,6.09,4.12,6.19,4.12,6.3c0,0.12,0,0.25,0,0.39V8.6z"/>
	<path d="M12.62,10.75H12.4c-0.09,0-0.21,0.02-0.35,0.05c-0.15,0.03-0.32,0.08-0.51,0.16c-0.08,0.03-0.17,0.06-0.27,0.09
		c-0.1,0.03-0.2,0.05-0.3,0.07c-0.1,0.02-0.21,0.03-0.31,0.04s-0.2,0.02-0.29,0.02c-0.4,0-0.77-0.06-1.1-0.19
		c-0.33-0.13-0.62-0.31-0.86-0.55S7.98,9.89,7.85,9.54s-0.2-0.74-0.2-1.18c0-0.25,0.03-0.5,0.08-0.75S7.85,7.13,7.96,6.9
		s0.23-0.44,0.38-0.63s0.33-0.36,0.54-0.51c0.21-0.14,0.44-0.26,0.7-0.34c0.26-0.08,0.54-0.12,0.85-0.12c0.14,0,0.29,0.01,0.44,0.03
		s0.29,0.05,0.44,0.09c0.14,0.04,0.28,0.08,0.41,0.14s0.26,0.12,0.37,0.18l-0.04-0.38h0.44V7.2h-0.29
		c-0.02-0.25-0.07-0.47-0.17-0.67s-0.22-0.36-0.37-0.49c-0.15-0.13-0.33-0.23-0.53-0.31c-0.2-0.07-0.42-0.11-0.65-0.11
		c-0.28,0-0.55,0.06-0.8,0.19c-0.25,0.13-0.47,0.3-0.65,0.53C8.85,6.57,8.71,6.84,8.6,7.15C8.49,7.46,8.44,7.8,8.44,8.17
		c0,0.38,0.05,0.73,0.16,1.05s0.25,0.59,0.44,0.82c0.19,0.23,0.42,0.41,0.68,0.54c0.26,0.13,0.55,0.2,0.87,0.2
		c0.11,0,0.22-0.01,0.34-0.02s0.24-0.04,0.35-0.07c0.12-0.03,0.24-0.07,0.35-0.12c0.12-0.05,0.23-0.11,0.33-0.18V8.63l-0.56,0.03
		V8.31h1.81v0.26c-0.1,0-0.18,0.02-0.25,0.06c-0.07,0.04-0.12,0.09-0.16,0.14c-0.04,0.06-0.07,0.12-0.1,0.2
		c-0.02,0.07-0.04,0.14-0.05,0.21c-0.01,0.07-0.01,0.14-0.02,0.2c0,0.06,0,0.11,0,0.15V10.75z"/>
</g>
<rect x="29.43" y="-7" fill="none" width="11.57" height="7"/>
<text transform="matrix(1 0 0 1 29.4321 -0.96)" font-family="'Lora'" font-size="8px">PG</text>
</svg>
