<?xml version="1.0" encoding="UTF-8"?> <svg xmlns="http://www.w3.org/2000/svg" width="95" height="88" viewBox="0 0 95 88" fill="none"> <g opacity="0.6"> <path fill-rule="evenodd" clip-rule="evenodd" d="M31.1666 8.33329C31.1666 6.03211 33.0321 4.16663 35.3333 4.16663H38.6666C39.1269 4.16663 39.5 4.53972 39.5 4.99996C39.5 5.4602 39.1269 5.83329 38.6666 5.83329H35.3333C33.9526 5.83329 32.8333 6.95258 32.8333 8.33329V11.6666C32.8333 12.1269 32.4602 12.5 32 12.5C31.5397 12.5 31.1666 12.1269 31.1666 11.6666V8.33329Z" fill="black"></path> <path fill-rule="evenodd" clip-rule="evenodd" d="M54.5 4.99996C54.5 4.53972 54.8731 4.16663 55.3333 4.16663H58.6667C60.9679 4.16663 62.8333 6.03211 62.8333 8.33329V11.6666C62.8333 12.1269 62.4602 12.5 62 12.5C61.5398 12.5 61.1667 12.1269 61.1667 11.6666V8.33329C61.1667 6.95257 60.0474 5.83329 58.6667 5.83329H55.3333C54.8731 5.83329 54.5 5.4602 54.5 4.99996Z" fill="black"></path> <path fill-rule="evenodd" clip-rule="evenodd" d="M53.6667 12.5C54.1269 12.5 54.5 12.8731 54.5 13.3333V16.6667C54.5 17.1269 54.1269 17.5 53.6667 17.5C53.2065 17.5 52.8334 17.1269 52.8334 16.6667V13.3333C52.8334 12.8731 53.2065 12.5 53.6667 12.5Z" fill="black"></path> <path fill-rule="evenodd" clip-rule="evenodd" d="M40.3333 12.5C40.7936 12.5 41.1667 12.8731 41.1667 13.3333V16.6667C41.1667 17.1269 40.7936 17.5 40.3333 17.5C39.8731 17.5 39.5 17.1269 39.5 16.6667V13.3333C39.5 12.8731 39.8731 12.5 40.3333 12.5Z" fill="black"></path> <path fill-rule="evenodd" clip-rule="evenodd" d="M42.5887 26.0769C42.5887 26.0769 42.5887 26.0769 42.5887 26.0769L42.5886 26.0768L42.5881 26.0764L42.5872 26.0754L42.5858 26.074C42.5851 26.0734 42.5847 26.073 42.5847 26.073L42.585 26.0733C42.5862 26.0745 42.5874 26.0756 42.5886 26.0768C42.5886 26.0769 42.5886 26.0769 42.5887 26.0769ZM42.585 26.0733L42.5894 26.0775C42.5957 26.0834 42.6082 26.0949 42.6268 26.1112C42.6642 26.1438 42.726 26.1956 42.8125 26.2605C42.9854 26.3902 43.2556 26.5711 43.6226 26.7547C44.3541 27.1204 45.4773 27.5 47 27.5C48.5227 27.5 49.6459 27.1204 50.3773 26.7547C50.7444 26.5711 51.0145 26.3902 51.1875 26.2605C51.2739 26.1956 51.3358 26.1438 51.3731 26.1112C51.3917 26.0949 51.4042 26.0834 51.4105 26.0775L51.4149 26.0733C51.7407 25.752 52.2652 25.7534 52.5892 26.0775C52.9147 26.4029 52.9147 26.9305 52.5892 27.256L52 26.6667C52.5892 27.256 52.5889 27.2563 52.5886 27.2566L52.588 27.2572L52.5866 27.2586L52.5833 27.2618L52.5749 27.27L52.5504 27.2934C52.5306 27.3119 52.504 27.3362 52.4706 27.3655C52.4037 27.424 52.3094 27.5024 52.1875 27.5938C51.9437 27.7766 51.5889 28.0123 51.1226 28.2454C50.1874 28.713 48.8106 29.1667 47 29.1667C45.1893 29.1667 43.8125 28.713 42.8773 28.2454C42.411 28.0123 42.0562 27.7766 41.8125 27.5938C41.6905 27.5024 41.5962 27.424 41.5293 27.3655C41.4959 27.3362 41.4693 27.3119 41.4495 27.2934L41.425 27.27L41.4166 27.2618L41.4133 27.2586L41.4119 27.2572L41.4113 27.2566C41.411 27.2563 41.4107 27.256 42 26.6667L41.4107 27.256C41.0853 26.9305 41.0853 26.4029 41.4107 26.0775C41.7347 25.7534 42.2592 25.752 42.585 26.0733Z" fill="black"></path> <path fill-rule="evenodd" clip-rule="evenodd" d="M47 12.5C47.4602 12.5 47.8333 12.8731 47.8333 13.3333V21.6667C47.8333 22.1269 47.4602 22.5 47 22.5H45.3333C44.8731 22.5 44.5 22.1269 44.5 21.6667C44.5 21.2064 44.8731 20.8333 45.3333 20.8333H46.1667V13.3333C46.1667 12.8731 46.5398 12.5 47 12.5Z" fill="black"></path> <path fill-rule="evenodd" clip-rule="evenodd" d="M32 27.5C32.4602 27.5 32.8333 27.8731 32.8333 28.3333V31.6667C32.8333 33.0474 33.9526 34.1667 35.3333 34.1667H38.6666C39.1269 34.1667 39.5 34.5398 39.5 35C39.5 35.4602 39.1269 35.8333 38.6666 35.8333H35.3333C33.0321 35.8333 31.1666 33.9679 31.1666 31.6667V28.3333C31.1666 27.8731 31.5397 27.5 32 27.5Z" fill="black"></path> <path fill-rule="evenodd" clip-rule="evenodd" d="M62 27.5C62.4602 27.5 62.8333 27.8731 62.8333 28.3333V31.6667C62.8333 33.9679 60.9679 35.8333 58.6667 35.8333H55.3333C54.8731 35.8333 54.5 35.4602 54.5 35C54.5 34.5398 54.8731 34.1667 55.3333 34.1667H58.6667C60.0474 34.1667 61.1667 33.0474 61.1667 31.6667V28.3333C61.1667 27.8731 61.5398 27.5 62 27.5Z" fill="black"></path> </g> <path opacity="0.5" d="M16.6597 71.1136C16.1483 71.1136 15.708 70.9929 15.3387 70.7514C14.9694 70.5099 14.6853 70.1773 14.4864 69.7536C14.2876 69.3298 14.1881 68.8456 14.1881 68.3011C14.1881 67.7472 14.2899 67.2583 14.4935 66.8345C14.6995 66.4084 14.9859 66.0758 15.3529 65.8366C15.7222 65.5952 16.1531 65.4744 16.6455 65.4744C17.029 65.4744 17.3747 65.5455 17.6824 65.6875C17.9902 65.8295 18.2423 66.0284 18.4388 66.2841C18.6353 66.5398 18.7573 66.8381 18.8046 67.179H17.9665C17.9026 66.9304 17.7606 66.7102 17.5404 66.5185C17.3226 66.3243 17.029 66.2273 16.6597 66.2273C16.333 66.2273 16.0465 66.3125 15.8003 66.483C15.5565 66.651 15.3659 66.889 15.2286 67.1967C15.0937 67.5021 15.0262 67.8608 15.0262 68.2727C15.0262 68.6941 15.0925 69.0611 15.2251 69.3736C15.36 69.6861 15.5494 69.9287 15.7932 70.1016C16.0394 70.2744 16.3283 70.3608 16.6597 70.3608C16.8775 70.3608 17.0752 70.3229 17.2528 70.2472C17.4303 70.1714 17.5806 70.0625 17.7037 69.9205C17.8269 69.7784 17.9144 69.608 17.9665 69.4091H18.8046C18.7573 69.7311 18.6401 70.0211 18.453 70.2791C18.2684 70.5348 18.0233 70.7384 17.718 70.8899C17.4149 71.0391 17.0622 71.1136 16.6597 71.1136ZM22.2456 71.1136C21.7532 71.1136 21.3212 70.9964 20.9495 70.7621C20.5802 70.5277 20.2913 70.1998 20.083 69.7784C19.877 69.357 19.7741 68.8646 19.7741 68.3011C19.7741 67.733 19.877 67.237 20.083 66.8132C20.2913 66.3894 20.5802 66.0604 20.9495 65.826C21.3212 65.5916 21.7532 65.4744 22.2456 65.4744C22.7381 65.4744 23.1689 65.5916 23.5383 65.826C23.9099 66.0604 24.1988 66.3894 24.4047 66.8132C24.6131 67.237 24.7172 67.733 24.7172 68.3011C24.7172 68.8646 24.6131 69.357 24.4047 69.7784C24.1988 70.1998 23.9099 70.5277 23.5383 70.7621C23.1689 70.9964 22.7381 71.1136 22.2456 71.1136ZM22.2456 70.3608C22.6197 70.3608 22.9275 70.2649 23.1689 70.0732C23.4104 69.8814 23.5892 69.6293 23.7052 69.3168C23.8212 69.0043 23.8792 68.6657 23.8792 68.3011C23.8792 67.9366 23.8212 67.5968 23.7052 67.282C23.5892 66.9671 23.4104 66.7126 23.1689 66.5185C22.9275 66.3243 22.6197 66.2273 22.2456 66.2273C21.8716 66.2273 21.5638 66.3243 21.3224 66.5185C21.0809 66.7126 20.9021 66.9671 20.7861 67.282C20.6701 67.5968 20.6121 67.9366 20.6121 68.3011C20.6121 68.6657 20.6701 69.0043 20.7861 69.3168C20.9021 69.6293 21.0809 69.8814 21.3224 70.0732C21.5638 70.2649 21.8716 70.3608 22.2456 70.3608ZM25.9965 71V65.5455H28.2267C28.8138 65.5455 29.2802 65.678 29.6258 65.9432C29.9714 66.2083 30.1443 66.5587 30.1443 66.9943C30.1443 67.3258 30.046 67.5826 29.8495 67.7649C29.653 67.9448 29.4009 68.0668 29.0931 68.1307C29.2944 68.1591 29.4897 68.2301 29.6791 68.3438C29.8708 68.4574 30.0294 68.6136 30.1549 68.8125C30.2804 69.009 30.3431 69.2505 30.3431 69.5369C30.3431 69.8163 30.2721 70.0661 30.1301 70.2862C29.988 70.5064 29.7844 70.6804 29.5193 70.8082C29.2541 70.9361 28.9369 71 28.5676 71H25.9965ZM26.792 70.233H28.5676C28.8564 70.233 29.0825 70.1643 29.2458 70.027C29.4092 69.8897 29.4909 69.7027 29.4909 69.4659C29.4909 69.1842 29.4092 68.9628 29.2458 68.8018C29.0825 68.6385 28.8564 68.5568 28.5676 68.5568H26.792V70.233ZM26.792 67.8324H28.2267C28.4516 67.8324 28.6445 67.8016 28.8055 67.7401C28.9665 67.6761 29.0896 67.5862 29.1748 67.4702C29.2624 67.3518 29.3062 67.2121 29.3062 67.0511C29.3062 66.8215 29.2103 66.6416 29.0186 66.5114C28.8268 66.3788 28.5628 66.3125 28.2267 66.3125H26.792V67.8324ZM33.8277 71.1136C33.3163 71.1136 32.876 70.9929 32.5067 70.7514C32.1373 70.5099 31.8532 70.1773 31.6544 69.7536C31.4555 69.3298 31.3561 68.8456 31.3561 68.3011C31.3561 67.7472 31.4579 67.2583 31.6615 66.8345C31.8675 66.4084 32.1539 66.0758 32.5209 65.8366C32.8902 65.5952 33.3211 65.4744 33.8135 65.4744C34.197 65.4744 34.5426 65.5455 34.8504 65.6875C35.1582 65.8295 35.4103 66.0284 35.6068 66.2841C35.8033 66.5398 35.9252 66.8381 35.9726 67.179H35.1345C35.0706 66.9304 34.9285 66.7102 34.7084 66.5185C34.4906 66.3243 34.197 66.2273 33.8277 66.2273C33.501 66.2273 33.2145 66.3125 32.9683 66.483C32.7245 66.651 32.5339 66.889 32.3966 67.1967C32.2616 67.5021 32.1942 67.8608 32.1942 68.2727C32.1942 68.6941 32.2604 69.0611 32.393 69.3736C32.528 69.6861 32.7174 69.9287 32.9612 70.1016C33.2074 70.2744 33.4962 70.3608 33.8277 70.3608C34.0455 70.3608 34.2432 70.3229 34.4207 70.2472C34.5983 70.1714 34.7486 70.0625 34.8717 69.9205C34.9948 69.7784 35.0824 69.608 35.1345 69.4091H35.9726C35.9252 69.7311 35.808 70.0211 35.621 70.2791C35.4363 70.5348 35.1913 70.7384 34.8859 70.8899C34.5829 71.0391 34.2301 71.1136 33.8277 71.1136ZM39.4846 71.1136C38.9591 71.1136 38.5057 70.9976 38.1246 70.7656C37.7458 70.5312 37.4534 70.2045 37.2474 69.7855C37.0438 69.3641 36.942 68.8741 36.942 68.3153C36.942 67.7566 37.0438 67.2642 37.2474 66.8381C37.4534 66.4096 37.7398 66.0758 38.1068 65.8366C38.4761 65.5952 38.907 65.4744 39.3994 65.4744C39.6835 65.4744 39.964 65.5218 40.241 65.6165C40.518 65.7112 40.7702 65.8651 40.9974 66.0781C41.2247 66.2888 41.4058 66.5682 41.5407 66.9162C41.6757 67.2642 41.7432 67.6927 41.7432 68.2017V68.5568H37.5386V67.8324H40.8909C40.8909 67.5246 40.8293 67.25 40.7062 67.0085C40.5855 66.767 40.4127 66.5765 40.1878 66.4368C39.9652 66.2971 39.7024 66.2273 39.3994 66.2273C39.0656 66.2273 38.7768 66.3101 38.5329 66.4759C38.2915 66.6392 38.1056 66.8523 37.9754 67.1151C37.8452 67.3778 37.7801 67.6596 37.7801 67.9602V68.4432C37.7801 68.8551 37.8511 69.2043 37.9932 69.4908C38.1376 69.7749 38.3376 69.9915 38.5933 70.1406C38.849 70.2874 39.1461 70.3608 39.4846 70.3608C39.7048 70.3608 39.9037 70.33 40.0812 70.2685C40.2612 70.2045 40.4162 70.1098 40.5464 69.9844C40.6766 69.8565 40.7773 69.6979 40.8483 69.5085L41.6579 69.7358C41.5727 70.0104 41.4295 70.2519 41.2282 70.4602C41.027 70.6662 40.7784 70.8272 40.4825 70.9432C40.1866 71.0568 39.854 71.1136 39.4846 71.1136ZM46.001 69.8636L47.9044 65.5455H48.6998L46.3419 71H45.6601L43.3447 65.5455H44.126L46.001 69.8636ZM43.8561 65.5455V71H43.018V65.5455H43.8561ZM48.1459 71V65.5455H48.9839V71H48.1459ZM55.5464 71.1136C55.0351 71.1136 54.5947 70.9929 54.2254 70.7514C53.8561 70.5099 53.572 70.1773 53.3731 69.7536C53.1743 69.3298 53.0748 68.8456 53.0748 68.3011C53.0748 67.7472 53.1766 67.2583 53.3802 66.8345C53.5862 66.4084 53.8727 66.0758 54.2396 65.8366C54.6089 65.5952 55.0398 65.4744 55.5322 65.4744C55.9157 65.4744 56.2614 65.5455 56.5692 65.6875C56.8769 65.8295 57.1291 66.0284 57.3256 66.2841C57.522 66.5398 57.644 66.8381 57.6913 67.179H56.8532C56.7893 66.9304 56.6473 66.7102 56.4271 66.5185C56.2093 66.3243 55.9157 66.2273 55.5464 66.2273C55.2197 66.2273 54.9333 66.3125 54.6871 66.483C54.4432 66.651 54.2526 66.889 54.1153 67.1967C53.9804 67.5021 53.9129 67.8608 53.9129 68.2727C53.9129 68.6941 53.9792 69.0611 54.1118 69.3736C54.2467 69.6861 54.4361 69.9287 54.68 70.1016C54.9262 70.2744 55.215 70.3608 55.5464 70.3608C55.7642 70.3608 55.9619 70.3229 56.1395 70.2472C56.317 70.1714 56.4674 70.0625 56.5905 69.9205C56.7136 69.7784 56.8012 69.608 56.8532 69.4091H57.6913C57.644 69.7311 57.5268 70.0211 57.3398 70.2791C57.1551 70.5348 56.9101 70.7384 56.6047 70.8899C56.3016 71.0391 55.9489 71.1136 55.5464 71.1136ZM58.9165 71V65.5455H59.7545V67.9176H60.3085L62.2687 65.5455H63.3483L61.1466 68.1733L63.3767 71H62.2971L60.5074 68.6989H59.7545V71H58.9165ZM66.2789 71.1136C65.7864 71.1136 65.3544 70.9964 64.9827 70.7621C64.6134 70.5277 64.3245 70.1998 64.1162 69.7784C63.9102 69.357 63.8073 68.8646 63.8073 68.3011C63.8073 67.733 63.9102 67.237 64.1162 66.8132C64.3245 66.3894 64.6134 66.0604 64.9827 65.826C65.3544 65.5916 65.7864 65.4744 66.2789 65.4744C66.7713 65.4744 67.2021 65.5916 67.5715 65.826C67.9432 66.0604 68.232 66.3894 68.4379 66.8132C68.6463 67.237 68.7504 67.733 68.7504 68.3011C68.7504 68.8646 68.6463 69.357 68.4379 69.7784C68.232 70.1998 67.9432 70.5277 67.5715 70.7621C67.2021 70.9964 66.7713 71.1136 66.2789 71.1136ZM66.2789 70.3608C66.6529 70.3608 66.9607 70.2649 67.2021 70.0732C67.4436 69.8814 67.6224 69.6293 67.7384 69.3168C67.8544 69.0043 67.9124 68.6657 67.9124 68.3011C67.9124 67.9366 67.8544 67.5968 67.7384 67.282C67.6224 66.9671 67.4436 66.7126 67.2021 66.5185C66.9607 66.3243 66.6529 66.2273 66.2789 66.2273C65.9048 66.2273 65.597 66.3243 65.3556 66.5185C65.1141 66.7126 64.9353 66.9671 64.8193 67.282C64.7033 67.5968 64.6453 67.9366 64.6453 68.3011C64.6453 68.6657 64.7033 69.0043 64.8193 69.3168C64.9353 69.6293 65.1141 69.8814 65.3556 70.0732C65.597 70.2649 65.9048 70.3608 66.2789 70.3608ZM70.0297 73.0455V65.5455H70.8394V66.4119H70.9388C71.0004 66.3172 71.0856 66.1965 71.1945 66.0497C71.3058 65.9006 71.4644 65.768 71.6704 65.652C71.8787 65.5336 72.1604 65.4744 72.5155 65.4744C72.9748 65.4744 73.3796 65.5893 73.73 65.8189C74.0804 66.0485 74.3538 66.3741 74.5503 66.7955C74.7468 67.2169 74.8451 67.714 74.8451 68.2869C74.8451 68.8646 74.7468 69.3653 74.5503 69.7891C74.3538 70.2105 74.0816 70.5372 73.7336 70.7692C73.3856 70.9988 72.9843 71.1136 72.5297 71.1136C72.1794 71.1136 71.8988 71.0556 71.6881 70.9396C71.4774 70.8213 71.3153 70.6875 71.2016 70.5384C71.088 70.3868 71.0004 70.2614 70.9388 70.1619H70.8678V73.0455H70.0297ZM70.8536 68.2727C70.8536 68.6847 70.914 69.0481 71.0347 69.3629C71.1555 69.6754 71.3318 69.9205 71.5638 70.098C71.7958 70.2732 72.0799 70.3608 72.4161 70.3608C72.7665 70.3608 73.0589 70.2685 73.2932 70.0838C73.53 69.8968 73.7075 69.6458 73.8259 69.331C73.9466 69.0137 74.007 68.661 74.007 68.2727C74.007 67.8892 73.9478 67.5436 73.8295 67.2358C73.7135 66.9257 73.5371 66.6806 73.3003 66.5007C73.066 66.3184 72.7712 66.2273 72.4161 66.2273C72.0752 66.2273 71.7887 66.3137 71.5567 66.4865C71.3247 66.657 71.1495 66.8961 71.0312 67.2038C70.9128 67.5092 70.8536 67.8655 70.8536 68.2727ZM78.3394 71.1136C77.847 71.1136 77.4149 70.9964 77.0432 70.7621C76.6739 70.5277 76.3851 70.1998 76.1768 69.7784C75.9708 69.357 75.8678 68.8646 75.8678 68.3011C75.8678 67.733 75.9708 67.237 76.1768 66.8132C76.3851 66.3894 76.6739 66.0604 77.0432 65.826C77.4149 65.5916 77.847 65.4744 78.3394 65.4744C78.8318 65.4744 79.2627 65.5916 79.632 65.826C80.0037 66.0604 80.2925 66.3894 80.4985 66.8132C80.7068 67.237 80.811 67.733 80.811 68.3011C80.811 68.8646 80.7068 69.357 80.4985 69.7784C80.2925 70.1998 80.0037 70.5277 79.632 70.7621C79.2627 70.9964 78.8318 71.1136 78.3394 71.1136ZM78.3394 70.3608C78.7135 70.3608 79.0212 70.2649 79.2627 70.0732C79.5042 69.8814 79.6829 69.6293 79.7989 69.3168C79.9149 69.0043 79.9729 68.6657 79.9729 68.3011C79.9729 67.9366 79.9149 67.5968 79.7989 67.282C79.6829 66.9671 79.5042 66.7126 79.2627 66.5185C79.0212 66.3243 78.7135 66.2273 78.3394 66.2273C77.9653 66.2273 77.6576 66.3243 77.4161 66.5185C77.1746 66.7126 76.9959 66.9671 76.8799 67.282C76.7639 67.5968 76.7059 67.9366 76.7059 68.3011C76.7059 68.6657 76.7639 69.0043 76.8799 69.3168C76.9959 69.6293 77.1746 69.8814 77.4161 70.0732C77.6576 70.2649 77.9653 70.3608 78.3394 70.3608ZM5.24547 83.608H6.14036C6.1593 83.8542 6.27057 84.0412 6.47417 84.169C6.68013 84.2969 6.94765 84.3608 7.27672 84.3608C7.6129 84.3608 7.90054 84.2921 8.13965 84.1548C8.37876 84.0152 8.49831 83.7902 8.49831 83.4801C8.49831 83.2978 8.45333 83.1392 8.36337 83.0043C8.27341 82.867 8.14675 82.7604 7.9834 82.6847C7.82005 82.6089 7.6271 82.571 7.40456 82.571H6.46706V81.8182H7.40456C7.73837 81.8182 7.98458 81.7424 8.1432 81.5909C8.30418 81.4394 8.38468 81.25 8.38468 81.0227C8.38468 80.7789 8.29827 80.5836 8.12544 80.4368C7.95262 80.2876 7.70759 80.2131 7.39036 80.2131C7.07076 80.2131 6.80442 80.2853 6.59135 80.4297C6.37828 80.5717 6.26583 80.7552 6.254 80.9801H5.37331C5.38278 80.6866 5.47275 80.4273 5.6432 80.2024C5.81365 79.9751 6.04566 79.7976 6.33922 79.6697C6.63278 79.5395 6.96896 79.4744 7.34775 79.4744C7.73127 79.4744 8.06389 79.5419 8.34561 79.6768C8.62971 79.8094 8.84869 79.9905 9.00257 80.2202C9.15882 80.4474 9.23695 80.7055 9.23695 80.9943C9.23695 81.3021 9.15054 81.5507 8.97772 81.7401C8.80489 81.9295 8.58828 82.0644 8.32786 82.1449V82.2017C8.53382 82.2159 8.71257 82.2822 8.86408 82.4006C9.01796 82.5166 9.13752 82.6693 9.22275 82.8587C9.30797 83.0457 9.35059 83.2528 9.35059 83.4801C9.35059 83.8116 9.26181 84.1004 9.08425 84.3466C8.90669 84.5904 8.66285 84.7798 8.35272 84.9148C8.04258 85.0473 7.68865 85.1136 7.29093 85.1136C6.90504 85.1136 6.55939 85.0509 6.254 84.9254C5.9486 84.7976 5.70594 84.6212 5.52601 84.3963C5.34846 84.169 5.25494 83.9062 5.24547 83.608ZM9.9454 86.5625V84.2188H10.3999C10.5112 84.1027 10.6071 83.9773 10.6876 83.8423C10.7681 83.7074 10.8379 83.5476 10.8971 83.3629C10.9587 83.1759 11.0107 82.9486 11.0534 82.6811C11.096 82.4112 11.1338 82.0857 11.167 81.7045L11.3517 79.5455H14.8176V84.2188H15.6556V86.5625H14.8176V85H10.7835V86.5625H9.9454ZM11.3517 84.2188H13.9795V80.3267H12.1329L11.9909 81.7045C11.9317 82.2751 11.8583 82.7734 11.7707 83.1996C11.6831 83.6257 11.5434 83.9654 11.3517 84.2188ZM19.055 85.1136C18.5294 85.1136 18.076 84.9976 17.6949 84.7656C17.3161 84.5312 17.0237 84.2045 16.8177 83.7855C16.6141 83.3641 16.5123 82.8741 16.5123 82.3153C16.5123 81.7566 16.6141 81.2642 16.8177 80.8381C17.0237 80.4096 17.3102 80.0758 17.6771 79.8366C18.0464 79.5952 18.4773 79.4744 18.9697 79.4744C19.2538 79.4744 19.5344 79.5218 19.8113 79.6165C20.0883 79.7112 20.3405 79.8651 20.5677 80.0781C20.795 80.2888 20.9761 80.5682 21.1111 80.9162C21.246 81.2642 21.3135 81.6927 21.3135 82.2017V82.5568H17.1089V81.8324H20.4612C20.4612 81.5246 20.3997 81.25 20.2765 81.0085C20.1558 80.767 19.983 80.5765 19.7581 80.4368C19.5355 80.2971 19.2728 80.2273 18.9697 80.2273C18.6359 80.2273 18.3471 80.3101 18.1032 80.4759C17.8618 80.6392 17.6759 80.8523 17.5457 81.1151C17.4155 81.3778 17.3504 81.6596 17.3504 81.9602V82.4432C17.3504 82.8551 17.4214 83.2043 17.5635 83.4908C17.7079 83.7749 17.9079 83.9915 18.1636 84.1406C18.4193 84.2874 18.7164 84.3608 19.055 84.3608C19.2751 84.3608 19.474 84.33 19.6515 84.2685C19.8315 84.2045 19.9865 84.1098 20.1167 83.9844C20.247 83.8565 20.3476 83.6979 20.4186 83.5085L21.2282 83.7358C21.143 84.0104 20.9998 84.2519 20.7986 84.4602C20.5973 84.6662 20.3488 84.8272 20.0528 84.9432C19.7569 85.0568 19.4243 85.1136 19.055 85.1136ZM24.8042 85.1136C24.2929 85.1136 23.8525 84.9929 23.4832 84.7514C23.1139 84.5099 22.8298 84.1773 22.6309 83.7536C22.4321 83.3298 22.3327 82.8456 22.3327 82.3011C22.3327 81.7472 22.4345 81.2583 22.6381 80.8345C22.844 80.4084 23.1305 80.0758 23.4974 79.8366C23.8667 79.5952 24.2976 79.4744 24.79 79.4744C25.1736 79.4744 25.5192 79.5455 25.827 79.6875C26.1347 79.8295 26.3869 80.0284 26.5834 80.2841C26.7799 80.5398 26.9018 80.8381 26.9491 81.179H26.1111C26.0471 80.9304 25.9051 80.7102 25.6849 80.5185C25.4671 80.3243 25.1736 80.2273 24.8042 80.2273C24.4775 80.2273 24.1911 80.3125 23.9449 80.483C23.701 80.651 23.5104 80.889 23.3731 81.1967C23.2382 81.5021 23.1707 81.8608 23.1707 82.2727C23.1707 82.6941 23.237 83.0611 23.3696 83.3736C23.5045 83.6861 23.6939 83.9287 23.9378 84.1016C24.184 84.2744 24.4728 84.3608 24.8042 84.3608C25.022 84.3608 25.2197 84.3229 25.3973 84.2472C25.5748 84.1714 25.7252 84.0625 25.8483 83.9205C25.9714 83.7784 26.059 83.608 26.1111 83.4091H26.9491C26.9018 83.7311 26.7846 84.0211 26.5976 84.2791C26.4129 84.5348 26.1679 84.7384 25.8625 84.8899C25.5595 85.0391 25.2067 85.1136 24.8042 85.1136ZM28.8987 81.5199H30.4612C31.1004 81.5199 31.5893 81.6821 31.9278 82.0064C32.2664 82.3307 32.4356 82.7415 32.4356 83.2386C32.4356 83.5653 32.3599 83.8625 32.2084 84.13C32.0568 84.3951 31.8343 84.607 31.5407 84.7656C31.2472 84.9219 30.8873 85 30.4612 85H28.1743V79.5455H29.0123V84.2188H30.4612C30.7926 84.2188 31.0649 84.1312 31.278 83.956C31.491 83.7808 31.5976 83.5559 31.5976 83.2812C31.5976 82.9924 31.491 82.7569 31.278 82.5746C31.0649 82.3923 30.7926 82.3011 30.4612 82.3011H28.8987V81.5199ZM40.5722 77.5L40.9983 78.0114C40.8326 78.1723 40.6408 78.2848 40.423 78.3487C40.2052 78.4126 39.959 78.4517 39.6844 78.4659C39.4098 78.4801 39.1044 78.4943 38.7682 78.5085C38.3894 78.5227 38.0757 78.6151 37.8271 78.7855C37.5786 78.956 37.3868 79.2022 37.2519 79.5241C37.1169 79.8461 37.0305 80.2415 36.9926 80.7102H37.0637C37.2483 80.3693 37.504 80.1184 37.8307 79.9574C38.1574 79.7964 38.5078 79.7159 38.8818 79.7159C39.308 79.7159 39.6915 79.8153 40.0324 80.0142C40.3733 80.2131 40.6432 80.5078 40.8421 80.8984C41.0409 81.2891 41.1404 81.7708 41.1404 82.3438C41.1404 82.9143 41.0386 83.4067 40.835 83.821C40.6337 84.2353 40.3508 84.5549 39.9862 84.7798C39.624 85.0024 39.1991 85.1136 38.7114 85.1136C38.2237 85.1136 37.7964 84.9988 37.4294 84.7692C37.0625 84.5372 36.7772 84.1939 36.5736 83.7393C36.37 83.2824 36.2682 82.7178 36.2682 82.0455V81.4631C36.2682 80.2486 36.4742 79.3277 36.8861 78.7003C37.3004 78.0729 37.923 77.7486 38.754 77.7273C39.0476 77.7178 39.3092 77.7154 39.5388 77.7202C39.7684 77.7249 39.9685 77.7143 40.1389 77.6882C40.3094 77.6622 40.4538 77.5994 40.5722 77.5ZM38.7114 84.3608C39.0405 84.3608 39.3234 84.2779 39.5601 84.1122C39.7992 83.9465 39.9827 83.7133 40.1105 83.4126C40.2384 83.1096 40.3023 82.7533 40.3023 82.3438C40.3023 81.946 40.2372 81.6075 40.107 81.3281C39.9791 81.0488 39.7957 80.8357 39.5566 80.6889C39.3174 80.5421 39.031 80.4688 38.6972 80.4688C38.4533 80.4688 38.2343 80.5102 38.0402 80.593C37.8461 80.6759 37.6804 80.7978 37.5431 80.9588C37.4057 81.1198 37.2992 81.3163 37.2235 81.5483C37.1501 81.7803 37.111 82.0455 37.1063 82.3438C37.1063 82.9545 37.2495 83.4434 37.536 83.8104C37.8224 84.1773 38.2142 84.3608 38.7114 84.3608ZM42.9621 87.0455C42.82 87.0455 42.6934 87.0336 42.5821 87.0099C42.4709 86.9886 42.3939 86.9673 42.3513 86.946L42.5644 86.2074C42.768 86.2595 42.9479 86.2784 43.1041 86.2642C43.2604 86.25 43.3989 86.1802 43.5196 86.0547C43.6427 85.9316 43.7552 85.7315 43.857 85.4545L44.0132 85.0284L41.9962 79.5455H42.9053L44.411 83.892H44.4678L45.9735 79.5455H46.8825L44.5672 85.7955C44.463 86.0772 44.334 86.3104 44.1801 86.495C44.0262 86.6821 43.8475 86.8205 43.6439 86.9105C43.4427 87.0005 43.2154 87.0455 42.9621 87.0455ZM46.9474 86.5625V84.2188H47.4019C47.5132 84.1027 47.609 83.9773 47.6895 83.8423C47.77 83.7074 47.8399 83.5476 47.8991 83.3629C47.9606 83.1759 48.0127 82.9486 48.0553 82.6811C48.0979 82.4112 48.1358 82.0857 48.1689 81.7045L48.3536 79.5455H51.8195V84.2188H52.6576V86.5625H51.8195V85H47.7854V86.5625H46.9474ZM48.3536 84.2188H50.9814V80.3267H49.1349L48.9928 81.7045C48.9336 82.2751 48.8602 82.7734 48.7726 83.1996C48.685 83.6257 48.5454 83.9654 48.3536 84.2188ZM56.0569 85.1136C55.5313 85.1136 55.078 84.9976 54.6968 84.7656C54.318 84.5312 54.0257 84.2045 53.8197 83.7855C53.6161 83.3641 53.5143 82.8741 53.5143 82.3153C53.5143 81.7566 53.6161 81.2642 53.8197 80.8381C54.0257 80.4096 54.3121 80.0758 54.6791 79.8366C55.0484 79.5952 55.4793 79.4744 55.9717 79.4744C56.2558 79.4744 56.5363 79.5218 56.8133 79.6165C57.0903 79.7112 57.3424 79.8651 57.5697 80.0781C57.797 80.2888 57.9781 80.5682 58.113 80.9162C58.248 81.2642 58.3154 81.6927 58.3154 82.2017V82.5568H54.1109V81.8324H57.4632C57.4632 81.5246 57.4016 81.25 57.2785 81.0085C57.1578 80.767 56.9849 80.5765 56.76 80.4368C56.5375 80.2971 56.2747 80.2273 55.9717 80.2273C55.6379 80.2273 55.349 80.3101 55.1052 80.4759C54.8637 80.6392 54.6779 80.8523 54.5477 81.1151C54.4175 81.3778 54.3524 81.6596 54.3524 81.9602V82.4432C54.3524 82.8551 54.4234 83.2043 54.5654 83.4908C54.7098 83.7749 54.9099 83.9915 55.1656 84.1406C55.4213 84.2874 55.7184 84.3608 56.0569 84.3608C56.2771 84.3608 56.4759 84.33 56.6535 84.2685C56.8334 84.2045 56.9885 84.1098 57.1187 83.9844C57.2489 83.8565 57.3495 83.6979 57.4205 83.5085L58.2302 83.7358C58.145 84.0104 58.0017 84.2519 57.8005 84.4602C57.5993 84.6662 57.3507 84.8272 57.0548 84.9432C56.7588 85.0568 56.4262 85.1136 56.0569 85.1136ZM59.0825 80.3267V79.5455H63.5143V80.3267H61.7245V85H60.8865V80.3267H59.0825ZM69.7652 86.8608V77.7273H70.6032V86.8608H69.7652ZM69.7652 85.1136C69.3959 85.1136 69.0597 85.0473 68.7567 84.9148C68.4536 84.7798 68.1932 84.5893 67.9754 84.343C67.7576 84.0945 67.5895 83.7973 67.4711 83.4517C67.3528 83.1061 67.2936 82.7225 67.2936 82.3011C67.2936 81.875 67.3528 81.4891 67.4711 81.1435C67.5895 80.7955 67.7576 80.4972 67.9754 80.2486C68.1932 80 68.4536 79.8094 68.7567 79.6768C69.0597 79.5419 69.3959 79.4744 69.7652 79.4744H70.0209V85.1136H69.7652ZM69.7652 84.3608H69.9072V80.2273H69.7652C69.4858 80.2273 69.2432 80.2841 69.0372 80.3977C68.8312 80.509 68.6608 80.6617 68.5258 80.8558C68.3933 81.0476 68.2938 81.2678 68.2275 81.5163C68.1636 81.7649 68.1317 82.0265 68.1317 82.3011C68.1317 82.6657 68.1897 83.0043 68.3057 83.3168C68.4217 83.6293 68.6004 83.8814 68.8419 84.0732C69.0834 84.2649 69.3911 84.3608 69.7652 84.3608ZM70.6032 85.1136H70.3476V79.4744H70.6032C70.9726 79.4744 71.3087 79.5419 71.6118 79.6768C71.9148 79.8094 72.1752 80 72.393 80.2486C72.6108 80.4972 72.7789 80.7955 72.8973 81.1435C73.0157 81.4891 73.0748 81.875 73.0748 82.3011C73.0748 82.7225 73.0157 83.1061 72.8973 83.4517C72.7789 83.7973 72.6108 84.0945 72.393 84.343C72.1752 84.5893 71.9148 84.7798 71.6118 84.9148C71.3087 85.0473 70.9726 85.1136 70.6032 85.1136ZM70.6032 84.3608C70.885 84.3608 71.1276 84.3063 71.3312 84.1974C71.5372 84.0862 71.7065 83.9347 71.839 83.7429C71.974 83.5488 72.0734 83.3286 72.1373 83.0824C72.2036 82.8338 72.2368 82.5734 72.2368 82.3011C72.2368 81.9366 72.1788 81.5968 72.0628 81.282C71.9468 80.9671 71.768 80.7126 71.5265 80.5185C71.2851 80.3243 70.9773 80.2273 70.6032 80.2273H70.4612V84.3608H70.6032ZM76.5718 85.1136C76.0794 85.1136 75.6473 84.9964 75.2757 84.7621C74.9063 84.5277 74.6175 84.1998 74.4092 83.7784C74.2032 83.357 74.1002 82.8646 74.1002 82.3011C74.1002 81.733 74.2032 81.237 74.4092 80.8132C74.6175 80.3894 74.9063 80.0604 75.2757 79.826C75.6473 79.5916 76.0794 79.4744 76.5718 79.4744C77.0642 79.4744 77.4951 79.5916 77.8644 79.826C78.2361 80.0604 78.5249 80.3894 78.7309 80.8132C78.9392 81.237 79.0434 81.733 79.0434 82.3011C79.0434 82.8646 78.9392 83.357 78.7309 83.7784C78.5249 84.1998 78.2361 84.5277 77.8644 84.7621C77.4951 84.9964 77.0642 85.1136 76.5718 85.1136ZM76.5718 84.3608C76.9459 84.3608 77.2536 84.2649 77.4951 84.0732C77.7366 83.8814 77.9153 83.6293 78.0313 83.3168C78.1473 83.0043 78.2053 82.6657 78.2053 82.3011C78.2053 81.9366 78.1473 81.5968 78.0313 81.282C77.9153 80.9671 77.7366 80.7126 77.4951 80.5185C77.2536 80.3243 76.9459 80.2273 76.5718 80.2273C76.1978 80.2273 75.89 80.3243 75.6485 80.5185C75.407 80.7126 75.2283 80.9671 75.1123 81.282C74.9963 81.5968 74.9383 81.9366 74.9383 82.3011C74.9383 82.6657 74.9963 83.0043 75.1123 83.3168C75.2283 83.6293 75.407 83.8814 75.6485 84.0732C75.89 84.2649 76.1978 84.3608 76.5718 84.3608ZM79.6098 80.3267V79.5455H84.0416V80.3267H82.2519V85H81.4138V80.3267H79.6098ZM87.1968 85.1136C86.7044 85.1136 86.2723 84.9964 85.9007 84.7621C85.5313 84.5277 85.2425 84.1998 85.0342 83.7784C84.8282 83.357 84.7252 82.8646 84.7252 82.3011C84.7252 81.733 84.8282 81.237 85.0342 80.8132C85.2425 80.3894 85.5313 80.0604 85.9007 79.826C86.2723 79.5916 86.7044 79.4744 87.1968 79.4744C87.6892 79.4744 88.1201 79.5916 88.4894 79.826C88.8611 80.0604 89.1499 80.3894 89.3559 80.8132C89.5642 81.237 89.6684 81.733 89.6684 82.3011C89.6684 82.8646 89.5642 83.357 89.3559 83.7784C89.1499 84.1998 88.8611 84.5277 88.4894 84.7621C88.1201 84.9964 87.6892 85.1136 87.1968 85.1136ZM87.1968 84.3608C87.5709 84.3608 87.8786 84.2649 88.1201 84.0732C88.3616 83.8814 88.5403 83.6293 88.6563 83.3168C88.7723 83.0043 88.8303 82.6657 88.8303 82.3011C88.8303 81.9366 88.7723 81.5968 88.6563 81.282C88.5403 80.9671 88.3616 80.7126 88.1201 80.5185C87.8786 80.3243 87.5709 80.2273 87.1968 80.2273C86.8228 80.2273 86.515 80.3243 86.2735 80.5185C86.032 80.7126 85.8533 80.9671 85.7373 81.282C85.6213 81.5968 85.5633 81.9366 85.5633 82.3011C85.5633 82.6657 85.6213 83.0043 85.7373 83.3168C85.8533 83.6293 86.032 83.8814 86.2735 84.0732C86.515 84.2649 86.8228 84.3608 87.1968 84.3608Z" fill="black"></path> </svg> 