<svg version="1.1" xmlns="http://www.w3.org/2000/svg" xmlns:xlink="http://www.w3.org/1999/xlink" viewBox="0 0 624 494.08">

	<!-- территория -->
	<path fill="#F7F7F7" d="M213.6,280.27c60.1,65.14,120.2,130.29,180.3,195.43c18.42-17.08,36.83-34.16,55.25-51.24c14.04-11.98,28.07-23.95,42.11-35.93c-8.29-35.34-16.59-70.67-24.88-106.01c15.18-15.93,30.36-31.87,45.55-47.8c-10.94-11.77-22.47-25.29-34.03-40.66c-11.21-14.9-20.75-29.29-28.86-42.7c-5.64-9.09-12.09-18.59-19.46-28.3c-3.48-4.58-6.97-8.94-10.43-13.08c-18.16-15.8-36.32-31.61-54.48-47.41c-21.64-8.98-43.29-17.96-64.93-26.94c-6.93,1.12-17.99,3.79-29.86,10.8c-11.76,6.94-19.4,15.23-23.73,20.71c2.42,5.2,5.37,10.8,8.98,16.62c2.1,3.39,4.23,6.53,6.33,9.44c0.3,0.48,0.95,1.66,0.85,3.23c-0.17,2.76-2.5,4.26-2.76,4.43c-15.75,15.33-31.51,30.65-47.26,45.98c-0.41,0.41-0.83,0.99-0.87,1.71c-0.08,1.52,1.61,2.71,1.86,2.9c2.23,1.75,24.9,30.19,60.19,75.15C253.5,244.49,233.55,262.38,213.6,280.27z"/>

	<!-- обводка домов -->
	<g fill="#FFFFFF">
		<path d="M298.88,317.58l-18.03,16.3c-0.8,0.72-2.04,0.66-2.76-0.14l-47.68-52.76c-0.72-0.8-0.66-2.04,0.14-2.76l18.03-16.3c0.8-0.72,2.04-0.66,2.76,0.14l47.68,52.76C299.74,315.62,299.68,316.85,298.88,317.58z"/>
		<path d="M347.93,371.76l-18.03,16.3c-0.8,0.72-2.04,0.66-2.76-0.14l-45.1-49.9c-0.72-0.8-0.66-2.04,0.14-2.76l18.03-16.3c0.8-0.72,2.04-0.66,2.76,0.14l45.1,49.9C348.79,369.8,348.73,371.03,347.93,371.76z"/>
		<path d="M413.4,441.87l-19.7,17.25c-0.87,0.76-2.23,0.7-3.02-0.15l-49.27-52.8c-0.79-0.85-0.72-2.16,0.15-2.92l19.7-17.25c0.87-0.76,2.23-0.7,3.02,0.15l49.27,52.8C414.34,439.8,414.28,441.1,413.4,441.87z"/>
		<path d="M483.49,378.41l-19.7,17.25c-0.87,0.76-2.23,0.7-3.02-0.15l-49.27-52.8c-0.79-0.85-0.72-2.16,0.15-2.92l19.7-17.25c0.87-0.76,2.23-0.7,3.02,0.15l49.27,52.8C484.43,376.34,484.36,377.64,483.49,378.41z"/>
		<path d="M446.86,374.42l15.7,20.47c0.69,0.91,0.58,2.27-0.27,3.02l-52.68,47.36c-0.84,0.76-2.1,0.64-2.79-0.27l-15.7-20.47c-0.69-0.91-0.58-2.27,0.27-3.02l52.68-47.36C444.91,373.4,446.16,373.51,446.86,374.42z"/>
		<path d="M378.32,344.96l-18.03,16.3c-0.8,0.72-2.04,0.66-2.76-0.14l-45.1-49.9c-0.72-0.8-0.66-2.04,0.14-2.76l18.03-16.3c0.8-0.72,2.04-0.66,2.76,0.14l45.1,49.9C379.19,343,379.12,344.24,378.32,344.96z"/>
		<path d="M328.84,290.21l-18.03,16.3c-0.8,0.72-2.04,0.66-2.76-0.14l-45.1-49.9c-0.72-0.8-0.66-2.04,0.14-2.76l18.03-16.3c0.8-0.72,2.04-0.66,2.76,0.14l45.1,49.9C329.7,288.25,329.64,289.49,328.84,290.21z"/>
		<path d="M358.99,263.61l-18.03,16.3c-0.8,0.72-2.04,0.66-2.76-0.14L222.11,151.32c-0.72-0.8-0.66-2.04,0.14-2.76l18.03-16.3c0.8-0.72,2.04-0.66,2.76,0.14l116.09,128.44C359.85,261.65,359.79,262.88,358.99,263.61z"/>
		<path d="M390.1,236.08l-18.03,16.3c-0.8,0.72-2.04,0.66-2.76-0.14L253.22,123.8c-0.72-0.8-0.66-2.04,0.14-2.76l18.03-16.3c0.8-0.72,2.04-0.66,2.76,0.14l116.09,128.44C390.96,234.12,390.9,235.36,390.1,236.08z"/>
		<path d="M412.03,128.14l-19.24,17.39c-0.8,0.72-2.04,0.66-2.76-0.14l-24.46-27.06c-0.72-0.8-0.66-2.04,0.14-2.76l19.24-17.39c0.8-0.72,2.04-0.66,2.76,0.14l24.46,27.06C412.89,126.18,412.83,127.42,412.03,128.14z"/>
		<path d="M357.1,82.51L337.86,99.9c-0.8,0.72-2.04,0.66-2.76-0.14L310.64,72.7c-0.72-0.8-0.66-2.04,0.14-2.76l19.24-17.39c0.8-0.72,2.04-0.66,2.76,0.14l24.46,27.06C357.96,80.55,357.9,81.78,357.1,82.51z"/>
		<path d="M382.05,101.11L364.47,117c-0.8,0.72-2.04,0.66-2.76-0.14L337.25,89.8c-0.72-0.8-0.66-2.04,0.14-2.76l17.58-15.89c0.8-0.72,2.04-0.66,2.76,0.14l24.46,27.06C382.91,99.15,382.85,100.38,382.05,101.11z"/>
		<path d="M449.98,182.12l-18.39,14.96c-0.84,0.68-2.07,0.55-2.75-0.28l-40.35-49.61c-0.68-0.84-0.55-2.07,0.28-2.75l18.39-14.96c0.84-0.68,2.07-0.55,2.75,0.28l40.35,49.61C450.94,180.21,450.81,181.44,449.98,182.12z"/>
		<path d="M418.69,208.41l-18.03,16.3c-0.8,0.72-2.04,0.66-2.76-0.14L259.78,71.76c-0.72-0.8-0.66-2.04,0.14-2.76l18.03-16.3c0.8-0.72,2.04-0.66,2.76,0.14l138.12,152.81C419.55,206.46,419.49,207.69,418.69,208.41z"/>
		<path d="M408.49,318.38l-18.03,16.3c-0.8,0.72-2.04,0.66-2.76-0.14l-45.1-49.9c-0.72-0.8-0.66-2.04,0.14-2.76l18.03-16.3c0.8-0.72,2.04-0.66,2.76,0.14l45.1,49.9C409.36,316.42,409.29,317.66,408.49,318.38z"/>
		<path d="M439.31,290.53l-18.03,16.3c-0.8,0.72-2.04,0.66-2.76-0.14l-45.1-49.9c-0.72-0.8-0.66-2.04,0.14-2.76l18.03-16.3c0.8-0.72,2.04-0.66,2.76,0.14l45.1,49.9C440.17,288.57,440.11,289.81,439.31,290.53z"/>
		<path d="M469.31,263.42l-18.03,16.3c-0.8,0.72-2.04,0.66-2.76-0.14l-45.1-49.9c-0.72-0.8-0.66-2.04,0.14-2.76l18.03-16.3c0.8-0.72,2.04-0.66,2.76,0.14l45.1,49.9C470.17,261.46,470.11,262.69,469.31,263.42z"/>
		<path d="M500.75,235l-18.03,16.3c-0.8,0.72-2.04,0.66-2.76-0.14l-45.1-49.9c-0.72-0.8-0.66-2.04,0.14-2.76l18.03-16.3c0.8-0.72,2.04-0.66,2.76,0.14l45.1,49.9C501.61,233.04,501.55,234.27,500.75,235z"/>
	</g>

	<g id="ekogorod" fill="#DEDEDE">
		<g id="1">
			<path d="M327.77,85.16l1.55-1.39l-3.41-3.8l-1.55,1.38l-9.7-10.79l14.68-13.12l21.96,24.45L336.62,95L327.77,85.16z"/>
			<path d="M354.12,103.59l1.58-1.42l-3.48-3.89l-1.58,1.41l-9.89-11.05l15.01-13.42l22.38,25.03l-15.01,13.42L354.12,103.59z"/>
		</g>
		<g id="2">
			<path d="M337.07,121.16l-1.56,1.41l-3.48-3.86l1.57-1.41l-9.87-10.96l-14.83,13.42l22.33,24.8l14.83-13.41L337.07,121.16z"/>
			<path d="M314.9,98.76l-1.59,1.45l-3.54-3.96l1.59-1.45l-10.03-11.24l-15.1,13.76l22.73,25.45l15.09-13.76L314.9,98.76z"/>
			<path d="M293.84,72.27l-1.56,1.42l-3.47-3.86l1.56-1.42l-9.84-10.97l-14.8,13.43l22.28,24.83l14.8-13.43L293.84,72.27z"/>
		</g>
		<g id="3">
			<path d="M269.46,136.25l1.54-1.38l-3.41-3.81l-1.55,1.39l-9.7-10.8l14.68-13.11l21.97,24.44l-14.69,13.11L269.46,136.25z"/>
			<path d="M290.64,161.89l1.58-1.41l-3.48-3.9l-1.58,1.42l-9.89-11.06l15.01-13.41l22.38,25.03l-15.01,13.41L290.64,161.89z"/>
		</g>
		<g id="4">
			<path d="M275.38,175.53l-1.57,1.42l-3.51-3.87l1.58-1.43l-9.95-11L247,174.15l22.52,24.91l14.93-13.5L275.38,175.53z"/>
			<path d="M254.55,149.56l-1.54,1.39l-3.42-3.8l1.54-1.39l-9.71-10.79l-14.59,13.21l21.97,24.43l14.6-13.21L254.55,149.56z"/>
		</g>
		<g id="5">
			<path d="M383.79,130.31l1.58-1.41l-3.48-3.9l-1.58,1.42l-9.89-11.06l15.01-13.41l22.38,25.03l-15.01,13.41L383.79,130.31z"/>
			<path d="M402.48,157.7l1.58-1.42l-3.48-3.89L399,153.8l-9.89-11.05l15.01-13.42l22.38,25.03l-15,13.42L402.48,157.7z"/>
			<path d="M421.7,182.65l1.58-1.41l-3.48-3.9l-1.58,1.42l-9.89-11.06l15-13.41l22.38,25.03l-15,13.41L421.7,182.65z"/>
		</g>
		<g id="6">
			<path d="M406.26,197.04l-1.57,1.41l-3.47-3.86l1.56-1.41l-9.86-10.96l-14.83,13.42l22.33,24.8l14.83-13.41L406.26,197.04z"/>
			<path d="M384.09,174.64l-1.6,1.45l-3.53-3.96l1.59-1.45l-10.04-11.24l-15.09,13.76l22.72,25.45l15.1-13.76L384.09,174.64z"/>
			<path d="M363.02,148.15l-1.56,1.42l-3.46-3.86l1.56-1.42l-9.85-10.97l-14.8,13.43l22.29,24.83l14.8-13.43L363.02,148.15z"/>
		</g>
		<g id="7">
			<path d="M318.68,188.98l1.59-1.42l-3.48-3.89l-1.59,1.41l-9.88-11.06l15-13.41l22.38,25.03l-15,13.42L318.68,188.98z"/>
			<path d="M338.84,215.76l1.58-1.41l-3.48-3.9l-1.58,1.42l-9.89-11.06l15-13.41l22.38,25.03l-15,13.41L338.84,215.76z"/>
			<path d="M363.68,238.57l1.59-1.42l-3.48-3.89l-1.59,1.41l-9.88-11.06l15-13.41l22.38,25.03l-15,13.42L363.68,238.57z"/>
		</g>
		<g id="8">
			<path d="M347.77,252.75l-1.57,1.41l-3.47-3.85l1.57-1.42l-9.87-10.96l-14.83,13.42l22.33,24.8l14.83-13.41L347.77,252.75z"/>
			<path d="M325.6,230.35l-1.59,1.45l-3.54-3.96l1.59-1.45l-10.04-11.24l-15.09,13.76l22.73,25.45l15.09-13.76L325.6,230.35z"/>
			<path d="M304.54,203.86l-1.57,1.42l-3.46-3.86l1.56-1.42l-9.84-10.96l-14.81,13.42l22.29,24.83l14.8-13.43L304.54,203.86z"/>
		</g>
		<g id="9">
			<path d="M278.85,269.71l1.51-1.43l-3.53-3.7l-1.51,1.43l-10.01-10.5l14.28-13.55l22.68,23.78l-14.29,13.55L278.85,269.71z"/>
			<path d="M302.82,292.8l1.54-1.46l-3.6-3.79l-1.54,1.46l-10.21-10.75l14.6-13.86l23.12,24.36l-14.6,13.85L302.82,292.8z"/>
		</g>
		<g id="10">
			<path d="M286.59,305.7l-1.57,1.42l-3.5-3.87l1.57-1.43l-9.94-11l-14.93,13.5l22.51,24.91l14.93-13.5L286.59,305.7z"/>
			<path d="M262.67,282.47l-1.54,1.4l-3.42-3.8l1.54-1.4l-9.71-10.79l-14.59,13.21l21.97,24.43l14.6-13.21L262.67,282.47z"/>
		</g>
		<g id="11">
			<path d="M451.86,212.56l1.5-1.43l-3.52-3.69l-1.51,1.42l-10.02-10.5l14.29-13.54l22.68,23.78l-14.29,13.54L451.86,212.56z"/>
			<path d="M472.41,238.86l1.54-1.46l-3.59-3.79l-1.54,1.46l-10.21-10.76l14.59-13.85l23.12,24.35l-14.6,13.86L472.41,238.86z"/>
		</g>
		<g id="12">
			<path d="M457.13,252.63l-1.58,1.42l-3.5-3.87l1.57-1.43l-9.94-11l-14.93,13.49l22.51,24.91l14.93-13.49L457.13,252.63z"/>
			<path d="M433.2,229.4l-1.54,1.39l-3.42-3.8l1.54-1.39l-9.7-10.79l-14.6,13.21l21.97,24.43l14.6-13.21L433.2,229.4z"/>
		</g>
		<g id="13">
			<path d="M388.56,269.71l1.5-1.43l-3.52-3.7l-1.51,1.43l-10.02-10.5l14.29-13.55l22.68,23.78l-14.29,13.55L388.56,269.71z"/>
			<path d="M412.53,292.8l1.54-1.46l-3.6-3.79l-1.54,1.46l-10.21-10.75l14.6-13.86l23.11,24.36l-14.59,13.85L412.53,292.8z"/>
		</g>
		<g id="14">
			<path d="M396.41,307.29l-1.57,1.42l-3.51-3.87l1.58-1.42l-9.95-11.01l-14.93,13.5l22.52,24.91l14.93-13.5L396.41,307.29z"/>
			<path d="M372.49,284.06l-1.54,1.4l-3.42-3.8l1.54-1.4l-9.71-10.79l-14.6,13.21l21.98,24.43l14.6-13.21L372.49,284.06z"/>
		</g>
		<g id="15">
			<path d="M327.73,323.82l1.51-1.43l-3.53-3.7l-1.5,1.43l-10.02-10.5l14.29-13.55l22.68,23.78l-14.29,13.55L327.73,323.82z"/>
			<path d="M351.71,346.86l1.54-1.46l-3.59-3.79l-1.54,1.46l-10.21-10.76l14.59-13.85l23.12,24.35l-14.6,13.86L351.71,346.86z"/>
		</g>
		<g id="16">
			<path d="M336.38,361.55l-1.57,1.42l-3.51-3.87l1.58-1.43l-9.95-11L308,360.16l22.52,24.91l14.93-13.49L336.38,361.55z"/>
			<path d="M312.46,338.32l-1.54,1.4l-3.42-3.81l1.54-1.39l-9.71-10.79l-14.6,13.21l21.98,24.43l14.6-13.21L312.46,338.32z"/>
		</g>
	</g>

	<g id="ekogorod-2">
		<g id="1" fill="#DEDEDE">
			<path d="M365.3,425.58l14.94-13.39l-8.63-9.64l3.13-2.81l-4.97-5.55l-3.13,2.81l-6.48-7.23l-14.94,13.38L365.3,425.58z"/>
			<path d="M415.37,340.33L432.49,325l26.55,29.65l-14.94,13.39l-6.48-7.24l-4.1,3.67l-5.18-5.78l0.96-0.87l-8.85-9.88l0.97-0.86L415.37,340.33z"/>
			<path d="M451.87,376.71l-3.13,2.81l-0.65-0.72l-6.27,5.61l12.95,14.47l5.31-4.75l1.08,1.2l17.6-15.76l-3.46-3.86l1.45-1.29l-17.71-19.77l-14.94,13.39L451.87,376.71z"/>
			<path d="M429.31,395.18l-6.99,6.26l13.17,14.71l19.29-17.27l-12.95-14.46l-6.75,6.05l-2.59-2.89l-5.55,4.97L429.31,395.18z"/>
			<path d="M409.54,412.89l-6.5,5.82l13.17,14.71l19.28-17.27l-13.17-14.71l-7.23,6.48l-2.59-2.89l-5.55,4.93L409.54,412.89z"/>
			<path fill="#282828" d="M396.04,424.98l0.86,0.96l-17.35,15.55l10.14,11.33l0.97-0.87l3.24,3.62l17.11-15.33l-1.08-1.2l6.27-5.62l-13.17-14.7L396.04,424.98z"/>
			<path d="M364.33,426.44l15.91-14.25l3.67,4.1l3.14-2.81l4.53,5.06l-2.89,2.59l6.04,6.75l-15.18,13.61l-2.38-2.66l-0.96,0.87L364.33,426.44z"/>
		</g>
	</g>

	<!-- лес -->
	<g fill="#E7FCD1">
	<path d="M144.36,278.72c-1.75,4.15,20.26,12.85,28.05,35.23c3.91,11.22,2.92,22.09,1.1,30.26c43.07,20.54,86.13,41.08,129.2,61.62c-32.13-38.21-64.27-76.42-96.4-114.63C158.99,276.67,145.64,275.69,144.36,278.72z"/>
	<path d="M145.42,143.85c-3.14,34.36-6.28,68.71-9.42,103.07c3.99,5.07,9.5,10.81,16.93,15.9c23.38,16,49.07,14.09,58.16,12.96c18.8-16.69,37.6-33.37,56.39-50.06c-22.87-26.16-45.74-52.32-68.61-78.48c18.01-16.83,36.02-33.67,54.04-50.5c-8.13-11.52-16.27-23.04-24.4-34.56c-3.64,6.43-9.79,16.18-19.21,26.5c-9.35,10.24-16.62,15.23-31.8,27.61C169.87,122.49,158.73,131.81,145.42,143.85z"/>
	<path d="M161.77,9.13c-10.31,9.32-23.18,11.93-32.54,12.66c-14.85,15.95-29.69,31.9-44.54,47.85c-0.22,0.12-1.8,1.05-2.14,2.98c-0.4,2.28,1.29,3.84,1.4,3.94c8.7,9.77,17.41,19.54,26.13,29.3c8.14,9.11,16.29,18.22,24.44,27.31c4.92-4.23,10.12-8.49,15.61-12.74c13.52-10.46,26.77-19.31,39.31-26.8c9.07-13.7,22.21-30.73,40.64-47.71c19.31-17.79,38.25-29.84,53.15-37.84c-0.65-2.06-1.77-4.98-3.74-8.1H169.34C167.66,2.51,165.68,5.59,161.77,9.13z"/>
	<path d="M74.31,75.39c-17.87-12.47-35.73-24.93-53.6-37.4C14.37,38.56,6.22,40.25,0,45.35v121.67c1.29,1.67,2.55,3.61,3.63,5.84c5.72,11.75,2.63,22.96,1.77,25.77c14.04,4.56,28.07,9.13,42.11,13.69c4.88-6.26,12.42-9.55,19.73-8.39c7.49,1.19,16.3,7.3,16.2,15.75c-0.09,7.19-6.57,11.86-7.51,12.52c1.67,3.19,3.34,6.38,5.01,9.57c14.53,1.77,29.06,3.53,43.58,5.3c3.09-33.52,6.18-67.04,9.28-100.56C113.96,122.8,94.13,99.09,74.31,75.39z"/>
	<path d="M79.76,470.87c9.97-8.51,34.57,6.22,37.77,0.44c2.01-3.62-7.42-9.86-7.73-22.36c-0.13-4.65,1.06-8.45,1.98-10.77c8.47-1.91,16.93-3.83,25.4-5.74c-0.66-24.52-1.33-49.03-1.99-73.55c-21.94-42.4-43.88-84.81-65.82-127.21c-23.12-9.75-46.25-19.5-69.37-29.25v287.56c0.74,1.34,1.55,2.71,2.41,4.09h75.36C76.64,484.66,74.19,475.62,79.76,470.87z"/>
	<path d="M366,55.68c6.46,3.55,13.02,7.6,19.58,12.22c43.03,30.28,66.38,71.07,79.07,101.01c15.8,20.17,31.61,40.34,47.41,60.52c-2.39-4.45-5.08-11.3-3.09-18.26c2.79-9.75,13.3-14.46,17.23-16.34c13.21-6.32,32.77-19.25,62.72-47.56c-16.53-10.29-42.09-29.56-61.4-61.99c-7.38-12.4-12.41-24.31-15.9-34.75c-11.99,1.34-25.57,4.13-39.91,9.58c-11.32,4.3-13.08,6.45-20.9,7.94c-14.83,2.82-24.56-1.84-42.55-6.18C398.68,59.55,384.34,56.75,366,55.68z"/>
	<path d="M315.26,0c4.8,6.97,11.19,11.41,13.33,12.81c17.88,11.69,36.51,6.57,60.22,18.7c1.5,0.77,2.6,1.39,4.56,2.21c11.67,4.88,22.13,3.56,32.83,2.36c34.44-3.86,29.04-1.73,37.41-3.68c25.02-5.84,27.34-14.22,43.44-13.69c5.52,0.18,20.65,1.67,32.1,13.84c13.64,14.49,11.96,33.4,11.63,36.52c18.21,17.91,36.42,35.83,54.63,53.74c1.91,0.15,5.57,0.24,9.72-1.1c0,0,4.05-1.31,8.88-5.56V0H315.26z"/>
	</g>

	<!-- дорога -->
	<path fill="#F7F7F7" d="M488.64,291.56c-0.08-0.25-0.49-1.41-0.44-2.94c0.15-5.65,6.2-9.67,7.78-10.78c13.97-9.77,82.07-73.92,116.54-125.01c0.88-1.3,1.57-2.35,1.77-2.65c3.24-1.62,6.47-3.24,9.71-4.85v-13.36c-2.72,2.6-8.36,7-14.4,5.79c-2.49-0.5-4.55-1.85-6.13-2.89c-4.38-2.88-6.99-6.42-8.39-8.68c-10.01-9.72-20.02-19.44-30.04-29.16c-10.71-7.15-16.51-14.77-19.83-20.42c-10.69-18.19-7.02-35.27-21.25-45.99c-1.53-1.15-4.59-3.41-9.17-4.67c-11.66-3.22-21.69,3-30.89,7.18c-17,7.72-31.91,8.69-49.89,9.86c-18.01,1.17-31.68-1.29-44.17-3.53c-10.72-1.93-27.86-5.12-48.46-14.43C330.7,20.21,316.18,12.43,300.8,0h-13.34c0.95,2.67,2.48,6.1,5.03,9.64c5.34,7.43,12.08,11.09,16.05,13.1c37.88,19.25,70.66,25.67,70.66,25.67c22.82,6.02,41.32,6.3,54.05,5.4c17.49-1.24,29.14-2.07,44.18-7.43c13.88-4.95,25.04-12.32,35.71-7.75c1.26,0.54,6.52,2.8,9.87,8.11c2,3.17,1.14,3.96,3.46,12.44c2.35,8.59,5.23,15.05,6.55,17.99c0,0,1.28,2.84,2.61,5.44c7.33,14.34,25.87,27.27,25.87,27.27c17.21,16.19,31.15,29.09,40.64,37.81c-1.7,2-4.18,4.92-7.18,8.45c-25.37,29.82-38.06,44.73-50.47,58.53c-21.93,24.38-32.89,36.57-37.44,39.31c-7.47,4.5-13.92,10.92-26.83,23.74c-1.42,1.41-5.14,5.21-5.63,10.6c0,0-0.15,1.63,0.11,3.31c0.78,5.03,23.17,109.65,43.1,202.45h16.51C507.21,372.26,490.01,295.73,488.64,291.56z"/>

	<!-- текст -->
	<g>
		<!-- номера домов -->
		<g id="house-number" fill="#7A7A7A" >
			<g>
				<path d="M351.29,91.02h-0.95V84.7l-1.91,0.7v-0.86l2.72-1.02h0.15V91.02z"/>
			</g>
			<g>
				<path d="M321.35,119.49h-4.89v-0.68l2.58-2.87c0.38-0.43,0.65-0.79,0.79-1.06c0.14-0.27,0.22-0.55,0.22-0.84c0-0.39-0.12-0.71-0.35-0.96c-0.24-0.25-0.55-0.37-0.94-0.37c-0.47,0-0.84,0.13-1.1,0.4c-0.26,0.27-0.39,0.64-0.39,1.12h-0.95c0-0.69,0.22-1.24,0.66-1.67c0.44-0.42,1.03-0.64,1.78-0.64c0.69,0,1.24,0.18,1.65,0.55c0.4,0.36,0.6,0.85,0.6,1.45c0,0.73-0.47,1.61-1.4,2.62l-2,2.17h3.75V119.49z"/>
			</g>
			<g>
				<path d="M286.91,142.25h0.71c0.45-0.01,0.8-0.12,1.06-0.35c0.26-0.23,0.38-0.54,0.38-0.93c0-0.87-0.44-1.31-1.31-1.31c-0.41,0-0.74,0.12-0.98,0.35c-0.24,0.23-0.37,0.54-0.37,0.93h-0.95c0-0.59,0.22-1.08,0.65-1.47s0.98-0.59,1.65-0.59c0.7,0,1.26,0.19,1.65,0.56c0.4,0.37,0.6,0.89,0.6,1.55c0,0.32-0.1,0.64-0.31,0.94c-0.21,0.3-0.5,0.53-0.86,0.68c0.41,0.13,0.73,0.35,0.95,0.65c0.22,0.3,0.34,0.67,0.34,1.1c0,0.67-0.22,1.2-0.66,1.59c-0.44,0.39-1.01,0.59-1.71,0.59s-1.27-0.19-1.71-0.57c-0.44-0.38-0.66-0.88-0.66-1.5h0.95c0,0.39,0.13,0.71,0.38,0.94c0.26,0.24,0.6,0.35,1.03,0.35c0.46,0,0.81-0.12,1.05-0.36c0.24-0.24,0.36-0.58,0.36-1.03c0-0.43-0.13-0.77-0.4-1c-0.27-0.23-0.65-0.35-1.15-0.36h-0.71V142.25z"/>
			</g>
			<g>
				<path d="M259.78,171h1.04v0.77h-1.04v1.73h-0.95v-1.73h-3.4v-0.56l3.34-5.17h1.01V171z M256.5,171h2.32v-3.66l-0.11,0.21L256.5,171z"/>
			</g>
			<g>
				<path d="M407.49,148.14l0.38-3.72h3.82v0.88h-3.02l-0.23,2.03c0.37-0.22,0.78-0.32,1.25-0.32c0.68,0,1.22,0.22,1.62,0.67s0.6,1.06,0.6,1.82c0,0.77-0.21,1.37-0.62,1.82s-0.99,0.66-1.74,0.66c-0.66,0-1.2-0.18-1.61-0.55c-0.42-0.37-0.65-0.87-0.71-1.52h0.9c0.06,0.43,0.21,0.75,0.46,0.97s0.57,0.33,0.97,0.33c0.44,0,0.79-0.15,1.04-0.45c0.25-0.3,0.38-0.72,0.38-1.25c0-0.5-0.14-0.9-0.41-1.2s-0.63-0.45-1.08-0.45c-0.41,0-0.74,0.09-0.97,0.27l-0.25,0.2L407.49,148.14z"/>
			</g>
			<g>
				<path d="M376,175.36v0.8h-0.17c-0.74,0.01-1.33,0.23-1.76,0.66c-0.44,0.42-0.69,1.02-0.76,1.79c0.39-0.45,0.93-0.68,1.61-0.68c0.65,0,1.17,0.23,1.55,0.69c0.39,0.46,0.58,1.05,0.58,1.77c0,0.77-0.21,1.38-0.63,1.84c-0.42,0.46-0.98,0.69-1.68,0.69c-0.71,0-1.29-0.27-1.74-0.82c-0.44-0.55-0.67-1.25-0.67-2.12v-0.36c0-1.37,0.29-2.42,0.88-3.15c0.59-0.73,1.46-1.1,2.62-1.11H376z M374.75,178.73c-0.32,0-0.62,0.1-0.9,0.29s-0.46,0.44-0.57,0.73v0.35c0,0.61,0.14,1.11,0.42,1.49c0.28,0.38,0.62,0.56,1.04,0.56c0.43,0,0.76-0.16,1.01-0.47s0.37-0.73,0.37-1.23c0-0.51-0.12-0.93-0.37-1.24S375.16,178.73,374.75,178.73z"/>
			</g>
			<g>
				<path d="M347.02,202.82l-3.09,6.93h-0.99l3.08-6.68h-4.04v-0.78h5.04V202.82z"/>
			</g>
			<g>
				<path d="M316.37,231.14c0,0.37-0.1,0.7-0.29,0.99c-0.2,0.29-0.46,0.52-0.8,0.68c0.39,0.17,0.7,0.41,0.92,0.73c0.23,0.32,0.34,0.69,0.34,1.09c0,0.65-0.22,1.16-0.65,1.54c-0.44,0.38-1.01,0.57-1.72,0.57c-0.72,0-1.29-0.19-1.72-0.58c-0.43-0.38-0.65-0.9-0.65-1.54c0-0.4,0.11-0.77,0.33-1.09s0.53-0.57,0.92-0.74c-0.33-0.16-0.59-0.39-0.78-0.68c-0.19-0.29-0.29-0.62-0.29-0.99c0-0.63,0.2-1.13,0.6-1.5c0.4-0.37,0.93-0.55,1.59-0.55c0.66,0,1.19,0.18,1.59,0.55C316.17,230.01,316.37,230.51,316.37,231.14z M315.59,234.62c0-0.42-0.13-0.76-0.4-1.02s-0.61-0.39-1.04-0.39c-0.43,0-0.77,0.13-1.03,0.39c-0.26,0.26-0.39,0.6-0.39,1.02c0,0.42,0.13,0.76,0.38,1c0.25,0.24,0.6,0.36,1.05,0.36c0.44,0,0.79-0.12,1.04-0.37S315.59,235.04,315.59,234.62z M314.17,229.87c-0.37,0-0.67,0.12-0.9,0.35s-0.35,0.54-0.35,0.94c0,0.38,0.11,0.69,0.34,0.92c0.23,0.23,0.53,0.35,0.91,0.35s0.68-0.12,0.91-0.35c0.23-0.23,0.34-0.54,0.34-0.92c0-0.38-0.12-0.69-0.35-0.93C314.83,229.99,314.53,229.87,314.17,229.87z"/>
			</g>
			<g>
				<path d="M297.24,271.69c-0.2,0.24-0.44,0.43-0.71,0.57c-0.28,0.14-0.58,0.22-0.9,0.22c-0.43,0-0.81-0.11-1.13-0.32s-0.57-0.51-0.74-0.89s-0.26-0.81-0.26-1.27c0-0.5,0.09-0.95,0.29-1.35c0.19-0.4,0.46-0.71,0.81-0.92s0.75-0.32,1.22-0.32c0.74,0,1.32,0.28,1.74,0.83c0.43,0.55,0.64,1.3,0.64,2.26v0.28c0,1.45-0.29,2.51-0.86,3.18c-0.57,0.67-1.44,1.01-2.6,1.03h-0.18v-0.8h0.2c0.78-0.01,1.38-0.22,1.8-0.61C296.98,273.17,297.21,272.55,297.24,271.69z M295.78,271.69c0.32,0,0.61-0.1,0.88-0.29s0.46-0.44,0.59-0.72v-0.38c0-0.62-0.13-1.13-0.41-1.52c-0.27-0.39-0.61-0.58-1.02-0.58c-0.42,0-0.75,0.16-1,0.48c-0.25,0.32-0.38,0.74-0.38,1.26c0,0.51,0.12,0.93,0.37,1.26C295.05,271.53,295.37,271.69,295.78,271.69z"/>
			</g>
			<g>
				<path d="M264.07,302.61h-0.95v-6.32l-1.91,0.7v-0.86l2.72-1.02h0.15V302.61z"/>
				<path d="M271.53,299.43c0,1.11-0.19,1.94-0.57,2.47c-0.38,0.54-0.97,0.81-1.78,0.81c-0.8,0-1.39-0.26-1.77-0.79c-0.38-0.53-0.58-1.32-0.59-2.36v-1.27c0-1.1,0.19-1.91,0.57-2.44c0.38-0.53,0.97-0.8,1.78-0.8c0.8,0,1.39,0.26,1.77,0.77c0.38,0.51,0.57,1.31,0.58,2.38V299.43z M270.58,298.13c0-0.8-0.11-1.39-0.34-1.75c-0.23-0.37-0.58-0.55-1.07-0.55c-0.48,0-0.84,0.18-1.06,0.55c-0.22,0.37-0.34,0.93-0.34,1.69v1.52c0,0.81,0.12,1.4,0.35,1.79s0.59,0.58,1.06,0.58c0.47,0,0.82-0.18,1.04-0.54c0.23-0.36,0.35-0.93,0.36-1.71V298.13z"/>
			</g>
			<g>
				<path d="M464.03,218.08h-0.95v-6.32l-1.91,0.7v-0.86l2.72-1.02h0.15V218.08z"/>
				<path d="M469.92,218.08h-0.95v-6.32l-1.91,0.7v-0.86l2.72-1.02h0.15V218.08z"/>
			</g>
			<g>
				<path d="M431.61,247.04h-0.95v-6.32l-1.91,0.7v-0.86l2.72-1.02h0.15V247.04z"/>
				<path d="M439.28,247.04h-4.89v-0.68l2.58-2.87c0.38-0.43,0.65-0.79,0.79-1.06c0.14-0.27,0.22-0.55,0.22-0.84c0-0.39-0.12-0.71-0.35-0.96c-0.24-0.25-0.55-0.37-0.94-0.37c-0.47,0-0.84,0.13-1.1,0.4c-0.26,0.27-0.39,0.64-0.39,1.12h-0.95c0-0.69,0.22-1.24,0.66-1.67c0.44-0.42,1.03-0.64,1.78-0.64c0.69,0,1.24,0.18,1.65,0.55c0.4,0.36,0.6,0.85,0.6,1.45c0,0.73-0.47,1.61-1.4,2.62l-2,2.17h3.75V247.04z"/>
			</g>
			<g>
				<path d="M400.94,272.28h-0.95v-6.32l-1.91,0.7v-0.86l2.72-1.02h0.15V272.28z"/>
				<path d="M405.1,268.09h0.71c0.45-0.01,0.8-0.12,1.05-0.35c0.26-0.23,0.38-0.54,0.38-0.93c0-0.87-0.44-1.31-1.31-1.31c-0.41,0-0.74,0.12-0.98,0.35c-0.24,0.23-0.37,0.54-0.37,0.93h-0.95c0-0.59,0.22-1.08,0.65-1.47c0.43-0.39,0.98-0.59,1.65-0.59c0.7,0,1.25,0.19,1.66,0.56c0.4,0.37,0.6,0.89,0.6,1.55c0,0.32-0.11,0.64-0.32,0.94c-0.21,0.3-0.5,0.53-0.86,0.68c0.41,0.13,0.73,0.35,0.95,0.65c0.22,0.3,0.34,0.67,0.34,1.1c0,0.67-0.22,1.2-0.66,1.59c-0.44,0.39-1.01,0.59-1.71,0.59s-1.27-0.19-1.71-0.57c-0.44-0.38-0.66-0.88-0.66-1.5h0.95c0,0.39,0.13,0.71,0.38,0.94c0.26,0.24,0.6,0.35,1.03,0.35c0.46,0,0.81-0.12,1.05-0.36c0.24-0.24,0.36-0.58,0.36-1.03c0-0.43-0.13-0.77-0.4-1c-0.27-0.23-0.65-0.35-1.15-0.36h-0.71V268.09z"/>
			</g>
			<g>
				<path d="M369.74,300.13h-0.95v-6.32l-1.91,0.7v-0.86l2.72-1.02h0.15V300.13z"/>
				<path d="M376.51,297.62h1.03v0.77h-1.03v1.73h-0.95v-1.73h-3.4v-0.56l3.34-5.17h1.01V297.62z M373.24,297.62h2.32v-3.66l-0.11,0.21L373.24,297.62z"/>
			</g>
			<g>
				<path d="M338.49,327.37h-0.95v-6.32l-1.91,0.7v-0.86l2.72-1.02h0.15V327.37z"/>
				<path d="M341.7,323.63l0.38-3.72h3.82v0.88h-3.02l-0.23,2.03c0.37-0.22,0.78-0.32,1.25-0.32c0.68,0,1.22,0.22,1.62,0.67s0.6,1.06,0.6,1.82c0,0.77-0.21,1.37-0.62,1.82s-0.99,0.66-1.74,0.66c-0.66,0-1.2-0.18-1.61-0.55c-0.42-0.37-0.65-0.87-0.71-1.52h0.9c0.06,0.43,0.21,0.75,0.46,0.97s0.57,0.33,0.97,0.33c0.44,0,0.79-0.15,1.04-0.45c0.25-0.3,0.38-0.72,0.38-1.25c0-0.5-0.14-0.9-0.41-1.2s-0.63-0.45-1.08-0.45c-0.41,0-0.74,0.09-0.97,0.27l-0.25,0.2L341.7,323.63z"/>
			</g>
			<g>
				<path d="M309.84,355.49h-0.95v-6.32l-1.91,0.7v-0.86l2.72-1.02h0.15V355.49z"/>
				<path d="M316.34,348.03v0.8h-0.17c-0.74,0.01-1.33,0.23-1.76,0.66c-0.44,0.42-0.69,1.02-0.76,1.79c0.39-0.45,0.93-0.68,1.61-0.68c0.65,0,1.17,0.23,1.55,0.69c0.39,0.46,0.58,1.05,0.58,1.77c0,0.77-0.21,1.38-0.63,1.84c-0.42,0.46-0.98,0.69-1.68,0.69c-0.71,0-1.29-0.27-1.74-0.82c-0.44-0.55-0.67-1.25-0.67-2.12v-0.36c0-1.37,0.29-2.42,0.88-3.15c0.59-0.73,1.46-1.1,2.62-1.11H316.34z M315.09,351.39c-0.32,0-0.62,0.1-0.9,0.29s-0.46,0.44-0.57,0.73v0.35c0,0.61,0.14,1.11,0.42,1.49c0.28,0.38,0.62,0.56,1.04,0.56c0.43,0,0.76-0.16,1.01-0.47s0.37-0.73,0.37-1.23c0-0.51-0.12-0.93-0.37-1.24S315.5,351.39,315.09,351.39z"/>
			</g>
		</g>

		<!-- Название улицы -->
		<g id="street-name" fill="#9B9B9B" >
			<path d="M397.74,48.9l0.92-2.76l0.68,0.01l-1.58,4.25c-0.25,0.61-0.62,0.91-1.12,0.9l-0.12-0.01l-0.24-0.05l0.01-0.51l0.17,0.02c0.21,0,0.38-0.04,0.51-0.12s0.22-0.24,0.31-0.47l0.15-0.37l-1.24-3.7l0.69,0.01L397.74,48.9z"/>
			<path d="M402.81,46.23l-0.08,3.71l-0.64-0.01l0.07-3.18l-1.26-0.03l-0.1,1.39c-0.05,0.64-0.17,1.09-0.35,1.36c-0.18,0.27-0.46,0.41-0.83,0.41l-0.25-0.01l0.01-0.56l0.18-0.01c0.21-0.02,0.36-0.13,0.45-0.35c0.09-0.21,0.16-0.61,0.2-1.19l0.1-1.58L402.81,46.23z"/>
			<path d="M403.77,49.63c0-0.11,0.04-0.2,0.1-0.27c0.07-0.07,0.16-0.11,0.29-0.1c0.13,0,0.23,0.04,0.29,0.12c0.07,0.07,0.1,0.17,0.1,0.28c0,0.1-0.04,0.19-0.11,0.26c-0.07,0.07-0.17,0.1-0.3,0.1c-0.13,0-0.23-0.04-0.29-0.11C403.8,49.82,403.77,49.73,403.77,49.63z"/>
			<path d="M408.05,48.47c0.05,0.41,0.18,0.7,0.37,0.87s0.47,0.26,0.84,0.27c0.4,0.01,0.71-0.14,0.95-0.44c0.24-0.3,0.36-0.73,0.38-1.28l-1.96-0.04l0.01-0.54l1.96,0.04c0.01-0.54-0.1-0.97-0.33-1.29c-0.23-0.32-0.56-0.49-0.98-0.5c-0.34-0.01-0.61,0.08-0.81,0.25c-0.19,0.17-0.33,0.46-0.39,0.86l-0.66-0.01c0.06-0.52,0.26-0.93,0.58-1.22s0.75-0.43,1.28-0.42c0.4,0.01,0.75,0.11,1.06,0.31c0.3,0.2,0.53,0.47,0.68,0.83s0.23,0.76,0.22,1.22l-0.01,0.5c-0.01,0.46-0.1,0.86-0.27,1.21c-0.17,0.35-0.41,0.61-0.71,0.79s-0.64,0.27-1.03,0.26c-0.54-0.01-0.98-0.16-1.3-0.46c-0.32-0.29-0.51-0.7-0.56-1.23L408.05,48.47z"/>
			<path d="M415.09,50.21l-0.63-0.01l0.03-1.58l-1.7-0.04l-0.03,1.58l-0.64-0.01l0.08-3.71l0.64,0.01l-0.04,1.61l1.7,0.04l0.04-1.61l0.63,0.01L415.09,50.21z"/>
			<path d="M417.65,50.33c-0.5-0.01-0.91-0.18-1.22-0.52c-0.31-0.34-0.46-0.78-0.45-1.33l0-0.12c0.01-0.37,0.09-0.7,0.23-0.98c0.15-0.29,0.35-0.51,0.6-0.67c0.26-0.16,0.53-0.23,0.83-0.23c0.48,0.01,0.85,0.18,1.11,0.5c0.26,0.32,0.38,0.78,0.37,1.37l-0.01,0.26l-2.51-0.05c0,0.37,0.1,0.66,0.3,0.89c0.2,0.23,0.46,0.35,0.77,0.35c0.22,0,0.41-0.04,0.57-0.13c0.16-0.09,0.3-0.21,0.42-0.35l0.38,0.31C418.74,50.11,418.27,50.34,417.65,50.33z M417.64,47c-0.26-0.01-0.47,0.08-0.65,0.27c-0.18,0.18-0.29,0.44-0.34,0.78l1.86,0.04l0-0.05c-0.01-0.32-0.09-0.57-0.24-0.75C418.11,47.1,417.91,47.01,417.64,47z"/>
			<path d="M423,48.56c-0.01,0.56-0.15,1.02-0.42,1.36c-0.27,0.34-0.62,0.5-1.06,0.5c-0.45-0.01-0.8-0.16-1.05-0.45l-0.04,1.79l-0.63-0.01l0.11-5.13l0.58,0.01l0.02,0.41c0.27-0.31,0.63-0.47,1.09-0.46c0.45,0.01,0.79,0.19,1.05,0.53c0.25,0.34,0.37,0.81,0.36,1.41L423,48.56z M422.37,48.48c0.01-0.42-0.07-0.75-0.25-1c-0.17-0.25-0.42-0.37-0.73-0.38c-0.38-0.01-0.67,0.16-0.87,0.49l-0.04,1.77c0.18,0.34,0.47,0.52,0.86,0.53c0.3,0.01,0.55-0.11,0.73-0.35S422.36,48.95,422.37,48.48z"/>
			<path d="M426.23,47.26l-1.71-0.04l-0.07,3.18l-0.64-0.01l0.08-3.71l2.35,0.05L426.23,47.26z"/>
			<path d="M428.18,50.55c-0.5-0.01-0.91-0.18-1.22-0.52c-0.31-0.34-0.46-0.78-0.45-1.33l0-0.12c0.01-0.37,0.09-0.7,0.23-0.98c0.15-0.29,0.35-0.51,0.6-0.67c0.26-0.16,0.53-0.23,0.83-0.23c0.48,0.01,0.85,0.18,1.11,0.5c0.26,0.32,0.38,0.78,0.37,1.37l-0.01,0.26l-2.51-0.05c0,0.37,0.1,0.66,0.3,0.89c0.2,0.23,0.46,0.35,0.77,0.35c0.22,0,0.41-0.04,0.57-0.13c0.16-0.09,0.3-0.21,0.42-0.35l0.38,0.31C429.27,50.34,428.8,50.57,428.18,50.55z M428.17,47.23c-0.26-0.01-0.47,0.08-0.65,0.27c-0.18,0.18-0.29,0.44-0.34,0.78l1.86,0.04l0-0.05c-0.01-0.32-0.09-0.57-0.24-0.75C428.65,47.33,428.44,47.23,428.17,47.23z"/>
			<path d="M433.15,47.4l-1.24-0.03l-0.07,3.19l-0.63-0.01l0.07-3.19l-1.22-0.03l0.01-0.51l3.1,0.07L433.15,47.4z"/>
			<path d="M436.17,46.95l0.63,0.01l-0.08,3.71l-0.63-0.01l0.06-2.7l-1.77,2.67l-0.63-0.01l0.08-3.71l0.63,0.01l-0.06,2.71L436.17,46.95z"/>
			<path d="M438.93,49.14l-0.46-0.01l-0.03,1.58l-0.64-0.01l0.08-3.71l0.64,0.01l-0.03,1.57l0.41,0.01l1.28-1.54l0.77,0.02l-1.5,1.75l1.55,1.96l-0.81-0.02L438.93,49.14z"/>
			<path d="M441.23,48.88c0.01-0.36,0.09-0.69,0.23-0.98c0.15-0.29,0.35-0.51,0.61-0.66c0.26-0.15,0.55-0.23,0.88-0.22c0.5,0.01,0.91,0.19,1.21,0.55c0.3,0.36,0.45,0.82,0.44,1.4l0,0.04c-0.01,0.36-0.08,0.68-0.23,0.97c-0.15,0.28-0.35,0.5-0.61,0.66c-0.26,0.15-0.56,0.23-0.89,0.22c-0.5-0.01-0.91-0.19-1.21-0.55c-0.3-0.36-0.45-0.82-0.44-1.4L441.23,48.88z M441.86,48.97c-0.01,0.41,0.08,0.74,0.26,1c0.19,0.25,0.44,0.38,0.76,0.39c0.32,0.01,0.58-0.11,0.78-0.36c0.2-0.25,0.3-0.6,0.31-1.05c0.01-0.41-0.08-0.74-0.27-1c-0.19-0.26-0.44-0.39-0.76-0.4c-0.31-0.01-0.57,0.11-0.77,0.36C441.98,48.15,441.87,48.5,441.86,48.97z"/>
			<path d="M445.42,50.86l0.08-3.71l1.45,0.03c0.49,0.01,0.87,0.1,1.13,0.28s0.39,0.43,0.38,0.77c0,0.17-0.06,0.32-0.16,0.46c-0.11,0.14-0.26,0.24-0.46,0.31c0.22,0.06,0.4,0.16,0.53,0.32c0.13,0.16,0.2,0.34,0.19,0.55c-0.01,0.34-0.14,0.6-0.39,0.77c-0.25,0.18-0.61,0.26-1.07,0.25L445.42,50.86z M446.09,49.24l-0.02,1.12l1.05,0.02c0.26,0.01,0.46-0.04,0.6-0.13c0.13-0.1,0.2-0.23,0.21-0.41c0.01-0.37-0.26-0.56-0.8-0.57L446.09,49.24z M446.1,48.73l0.82,0.02c0.59,0.01,0.89-0.15,0.9-0.5c0.01-0.35-0.27-0.53-0.83-0.56l-0.87-0.02L446.1,48.73z"/>
		</g>
		<!-- Экопарк -->
		<g fill="#7C7C7C">
			<path d="M172.51,206.92c0.08,0.53,0.25,0.9,0.5,1.12c0.25,0.21,0.61,0.32,1.09,0.32c0.51,0,0.91-0.2,1.21-0.6c0.3-0.4,0.45-0.95,0.45-1.66h-2.54v-0.7h2.54c0-0.7-0.15-1.26-0.46-1.66c-0.31-0.41-0.73-0.61-1.28-0.61c-0.44,0-0.79,0.12-1.03,0.35c-0.25,0.23-0.41,0.6-0.48,1.12h-0.85c0.07-0.68,0.31-1.21,0.72-1.59c0.41-0.38,0.96-0.57,1.65-0.57c0.52,0,0.98,0.12,1.37,0.37s0.7,0.6,0.91,1.05c0.21,0.46,0.32,0.98,0.32,1.57v0.64c0,0.59-0.1,1.12-0.31,1.57c-0.21,0.45-0.51,0.8-0.89,1.05c-0.38,0.24-0.82,0.37-1.32,0.37c-0.7,0-1.27-0.19-1.69-0.56c-0.42-0.37-0.68-0.9-0.76-1.58H172.51z"/>
			<path d="M179.23,206.93h-0.6v2.04h-0.82v-4.79h0.82v2.03h0.54l1.61-2.03h0.99l-1.9,2.3l2.06,2.49h-1.04L179.23,206.93z"/>
			<path d="M182.19,206.53c0-0.47,0.09-0.89,0.28-1.27c0.18-0.38,0.44-0.66,0.77-0.87c0.33-0.2,0.71-0.31,1.13-0.31c0.65,0,1.18,0.23,1.58,0.68c0.4,0.45,0.6,1.05,0.6,1.8v0.06c0,0.47-0.09,0.89-0.27,1.26c-0.18,0.37-0.43,0.66-0.77,0.87s-0.71,0.31-1.15,0.31c-0.65,0-1.18-0.23-1.58-0.68c-0.4-0.45-0.6-1.05-0.6-1.79V206.53z M183.01,206.62c0,0.53,0.12,0.96,0.37,1.28c0.25,0.32,0.58,0.48,0.99,0.48c0.42,0,0.75-0.16,0.99-0.49c0.25-0.33,0.37-0.78,0.37-1.37c0-0.53-0.12-0.95-0.37-1.28c-0.25-0.33-0.58-0.49-0.99-0.49c-0.4,0-0.73,0.16-0.98,0.48C183.14,205.56,183.01,206.02,183.01,206.62z"/>
			<path d="M191.5,208.97h-0.82v-4.12h-2.21v4.12h-0.82v-4.79h3.85V208.97z"/>
			<path d="M195.77,208.97c-0.05-0.09-0.09-0.26-0.12-0.5c-0.38,0.4-0.84,0.59-1.36,0.59c-0.47,0-0.86-0.13-1.16-0.4c-0.3-0.27-0.45-0.61-0.45-1.02c0-0.5,0.19-0.89,0.57-1.16c0.38-0.28,0.91-0.41,1.6-0.41h0.8v-0.38c0-0.29-0.09-0.51-0.26-0.68c-0.17-0.17-0.42-0.25-0.76-0.25c-0.29,0-0.54,0.07-0.74,0.22c-0.2,0.15-0.3,0.33-0.3,0.54h-0.82c0-0.24,0.08-0.47,0.25-0.69c0.17-0.22,0.4-0.4,0.69-0.53c0.29-0.13,0.61-0.19,0.96-0.19c0.55,0,0.98,0.14,1.3,0.41s0.48,0.66,0.49,1.14v2.21c0,0.44,0.06,0.79,0.17,1.05v0.07H195.77z M194.41,208.34c0.26,0,0.5-0.07,0.73-0.2c0.23-0.13,0.4-0.31,0.5-0.52v-0.98H195c-1,0-1.51,0.29-1.51,0.88c0,0.26,0.09,0.46,0.26,0.6S194.14,208.34,194.41,208.34z"/>
			<path d="M201.8,206.62c0,0.73-0.17,1.32-0.5,1.76c-0.33,0.45-0.79,0.67-1.36,0.67c-0.58,0-1.04-0.18-1.37-0.55v2.31h-0.82v-6.64h0.75l0.04,0.53c0.33-0.41,0.8-0.62,1.39-0.62c0.58,0,1.03,0.22,1.37,0.65c0.34,0.43,0.5,1.04,0.5,1.81V206.62zM200.98,206.53c0-0.54-0.12-0.97-0.35-1.28c-0.23-0.31-0.55-0.47-0.95-0.47c-0.5,0-0.87,0.22-1.12,0.66v2.29c0.25,0.44,0.62,0.66,1.13,0.66c0.39,0,0.71-0.16,0.94-0.47S200.98,207.15,200.98,206.53z"/>
			<path d="M204.33,206.93h-0.6v2.04h-0.82v-4.79h0.82v2.03h0.54l1.61-2.03h0.99l-1.9,2.3l2.06,2.49h-1.04L204.33,206.93z"/>
		</g>
	</g>

</svg>
