<svg id="Слой_1" data-name="Слой 1" xmlns="http://www.w3.org/2000/svg" viewBox="0 0 344.37 569.4">
	<defs>
		<style>.cls-1{fill:none;stroke:#000;stroke-miterlimit:10;stroke-width:1.4px;}</style>
	</defs>
	<title>ген</title>
	<polygon class="cls-1" points="103.13 118.64 96.92 118.64 96.92 6.91 23.98 6.91 23.98 13.12 0.7 13.12 0.7 123.3 8.46 123.3 8.46 163.65 103.13 163.65 103.13 118.64"/>
	<polygon class="cls-1" points="199.34 0.7 199.34 103.13 172.96 103.13 172.96 123.3 140.37 123.3 140.37 104.68 96.92 104.68 96.92 6.91 113.99 6.91 113.99 0.7 199.34 0.7"/>
	<polygon class="cls-1" points="199.34 6.91 199.34 103.13 261.42 103.13 261.42 123.3 297.12 123.3 297.12 103.13 343.67 103.13 343.67 6.91 199.34 6.91"/>
	<polygon class="cls-1" points="343.67 458.51 343.67 568.7 152.79 568.7 152.79 472.48 199.34 472.48 199.34 446.1 236.59 446.1 236.59 452.31 300.22 452.31 300.22 458.51 343.67 458.51"/>
	<polygon class="cls-1" points="96.92 472.48 96.92 452.31 101.57 452.31 101.57 411.96 8.46 411.96 8.46 446.1 0.7 446.1 0.7 559.39 25.53 559.39 25.53 568.7 152.79 568.7 152.79 472.48 96.92 472.48"/>
		<path class="cls-1" d="M103.7,333.11v-45H9V412.26h93.11V368.8h20.18V333.11Z" transform="translate(-0.58 -0.3)"/>
		<path class="cls-1" d="M103.7,205.85V164H9V288.1H103.7V241.55h18.63v-35.7Z" transform="translate(-0.58 -0.3)"/>
	</svg>